<?xml version="1.0" encoding="UTF-8"?>
<svg version="1.1" xmlns="http://www.w3.org/2000/svg" width="2566" height="1632" style="background:transparent">
<path d="M0 0 C38.61 0 77.22 0 117 0 C123.44724722 44.47436816 123.44724722 44.47436816 126.04394531 62.39331055 C126.2010764 63.47761773 126.35820748 64.56192492 126.52010012 65.6790899 C127.53013176 72.64902237 128.54012576 79.6189603 129.55010033 86.58890104 C130.06071859 90.11270638 130.57135114 93.63650964 131.08198547 97.16031265 C139.96852696 158.48564365 148.84330711 219.81265783 157.69865298 281.14250088 C158.35498514 285.68808545 159.01135418 290.2336647 159.66772652 294.77924347 C163.53551502 321.56501443 167.40304409 348.35082283 171.26785278 375.13702393 C173.57610122 391.13497039 175.88486698 407.13284209 178.19471374 423.13055786 C178.38763357 424.46669865 178.5805494 425.80284002 178.77346119 427.13898197 C183.99043692 463.27245751 189.23854091 499.40107455 194.55206299 535.52047729 C194.96347405 538.31727308 195.3748354 541.11407617 195.78613281 543.91088867 C195.88355223 544.57331038 195.98097165 545.2357321 196.08134317 545.9182272 C198.81303744 564.49818043 201.48032935 583.0872396 204.12527847 601.6797142 C204.65046301 605.36965004 205.17685124 609.05941393 205.70314121 612.74919224 C211.18115535 651.15965447 216.59993035 689.57851065 222 728 C223.19255312 727.01366273 223.19255312 727.01366273 223.22085857 725.14301682 C227.46612348 689.51725964 232.01623506 653.93949811 236.86328125 618.390625 C236.99260969 617.44176485 237.12193812 616.4929047 237.2551856 615.51529121 C239.13190786 601.74923695 241.01774687 587.98443599 242.90530396 574.21986389 C245.18826862 557.5691758 247.46609387 540.91778715 249.73828125 524.265625 C249.87004918 523.30033072 250.00181711 522.33503644 250.13757801 521.34049082 C254.5941552 488.68662513 258.88571317 456.0135323 263.08818054 423.32608032 C263.53385861 419.85995118 263.97964249 416.39383567 264.42553711 412.92773438 C264.53433838 412.08185532 264.64313966 411.23597627 264.75523794 410.36446452 C267.01681949 392.79071472 269.34325485 375.22590754 271.6953125 357.6640625 C271.83383731 356.62936266 271.83383731 356.62936266 271.9751606 355.57375979 C272.89337926 348.71534351 273.81279897 341.85708881 274.73326671 334.99897403 C276.76816276 319.83751566 278.79442791 304.67490499 280.81640625 289.51171875 C280.91039381 288.80693712 281.00438137 288.1021555 281.10121703 287.37601686 C284.16387498 264.40601642 287.17450934 241.43015793 290.0625 218.4375 C290.1914673 217.4111998 290.1914673 217.4111998 290.32304001 216.36416626 C291.07286923 210.39519502 291.82049181 204.42594947 292.56611633 198.45645142 C294.41249979 183.67579275 296.29201756 168.89943281 298.1875 154.125 C298.27560188 153.43814747 298.36370377 152.75129494 298.4544754 152.04362869 C302.20298831 122.83554016 306.0761807 93.64387263 309.96136856 64.4536972 C310.43488278 60.89467154 310.90774231 57.33555941 311.38046265 53.77642822 C312.12970828 48.13695489 312.88117768 42.49778202 313.63436127 36.85883331 C313.91346826 34.76723997 314.19194345 32.6755622 314.46973419 30.58379364 C314.85480746 27.68565245 315.24239965 24.78785844 315.63061523 21.89013672 C315.7402167 21.06126009 315.84981817 20.23238346 315.9627409 19.37838936 C316.83683105 12.88567086 317.92125326 6.47248043 319 0 C360.91 0 402.82 0 446 0 C446 2.31 446 4.62 446 7 C444.91203125 7.23074219 443.8240625 7.46148437 442.703125 7.69921875 C425.38537454 11.48939202 409.81611389 17.09004515 399 32 C392.25734169 42.90139541 390.16159528 54.26255314 388.8125 66.8125 C388.68633301 67.96588867 388.68633301 67.96588867 388.55761719 69.14257812 C387.14028204 84.07675022 388.26374572 98.96535732 389.375 113.875 C389.51261893 115.783249 389.64974005 117.69153395 389.78637695 119.59985352 C390.37629488 127.78897139 390.99124542 135.97584977 391.64453125 144.16015625 C391.73750488 145.32885254 391.83047852 146.49754883 391.92626953 147.70166016 C392.0926785 149.762954 392.26372741 151.82388229 392.44091797 153.88427734 C392.99181524 160.60048511 393.08606427 167.26271261 393 174 C399.1515855 168.7987284 404.85154425 163.23912118 410.5 157.5 C425.67948479 142.07686377 442.56250095 128.77279843 460 116 C460.96679688 115.28360352 460.96679688 115.28360352 461.953125 114.55273438 C507.03496287 81.23725619 559.89520104 56.71935779 615 46 C615.83031738 45.83564453 616.66063477 45.67128906 617.51611328 45.50195312 C667.6679925 35.84261206 724.62985265 38.79509647 769 66 C772.58950183 68.4459828 775.80808178 71.06178323 779 74 C780.21623047 75.02480469 780.21623047 75.02480469 781.45703125 76.0703125 C793.09534151 86.04600701 801.33659434 97.89060178 809 111 C809.66644531 112.1240625 810.33289062 113.248125 811.01953125 114.40625 C819.69756911 129.81816245 825.63328332 146.70101162 831.87573242 163.203125 C838.30879324 180.18027046 844.81912659 196.54768585 856 211 C856.57234375 211.75539063 857.1446875 212.51078125 857.734375 213.2890625 C869.32763948 227.58742203 885.67171854 232.53046713 903 236 C903.66 236 904.32 236 905 236 C905.35078613 235.41323486 905.70157227 234.82646973 906.06298828 234.22192383 C914.66042543 219.87754416 923.55762782 205.80287756 933 192 C933.65291016 191.04528809 934.30582031 190.09057617 934.97851562 189.10693359 C942.91481087 177.53538902 950.98322862 166.09034428 959.51269531 154.94775391 C961.09810031 152.87152917 962.67069631 150.78599117 964.2421875 148.69921875 C970.00085796 141.07555325 975.86609969 133.5953774 982.10913086 126.36181641 C983.97884395 124.19467151 985.83145629 122.01495486 987.66821289 119.81982422 C994.47314274 111.7207922 1001.60597863 104.05051882 1009.09912109 96.58520508 C1010.87621331 94.81128886 1012.63946794 93.02435996 1014.40234375 91.23632812 C1040.37077344 65.12532701 1075.96312166 39.83710342 1114 38.6875 C1127.21981984 38.9835961 1138.91815506 43.06497875 1148.75 52 C1155.39205876 59.04749861 1160.76960729 69.29747462 1162 79 C1162.13148437 80.0003125 1162.26296875 81.000625 1162.3984375 82.03125 C1165.36169261 111.26870037 1152.54811404 137.62270422 1134.50390625 159.84228516 C1123.81844829 172.77608605 1112.27556682 184.71228453 1099 195 C1097.71087892 196.01815501 1096.42182081 197.03638973 1095.1328125 198.0546875 C1056.78558541 228.11690939 1009.84428402 250.20072492 960.86328125 254.109375 C959.8122522 254.19687012 958.76122314 254.28436523 957.67834473 254.37451172 C955.11919609 254.58698582 952.5597892 254.795414 950 255 C949.82033188 255.77544662 949.64066376 256.55089325 949.45555115 257.34983826 C928.10739688 349.40299907 905.53639495 441.45424863 843.96282959 583.05932617 C842.7056146 585.59336153 841.4574137 588.13178686 840.20903015 590.67018127 C833.27840399 604.75231289 826.06770184 618.64371269 818.45458984 632.36865234 C816.50424024 635.89682758 814.58099661 639.43946036 812.65722656 642.98217773 C805.81511037 655.5764451 798.85956118 668.10726594 791.88037109 680.62597656 C790.05985686 683.8925965 788.2427313 687.16108418 786.42578125 690.4296875 C763.05464004 732.40254886 738.08792595 773.30491154 711.25048828 813.14282227 C710.09129942 814.86440556 708.93423057 816.5874158 707.77734375 818.31054688 C693.44202889 839.64779299 678.34691515 860.34732626 661.63671875 879.890625 C659.10049617 882.86393534 656.64139829 885.89581703 654.1875 888.9375 C650.98548886 892.87666478 647.68150331 896.50729173 644 900 C649.41320331 899.45698274 653.41957412 897.54554085 658.125 895 C658.87346191 894.59845703 659.62192383 894.19691406 660.39306641 893.78320312 C667.10249758 890.09711323 673.05733977 885.83685272 679 881 C679.886875 880.29230469 680.77375 879.58460938 681.6875 878.85546875 C692.95121074 869.76919046 703.86004864 860.27032471 714.46289062 850.42382812 C716.10031729 848.90707586 717.74477511 847.39823097 719.390625 845.890625 C725.04619746 840.70394157 730.63468439 835.49009039 736 830 C736.66 830 737.32 830 738 830 C738 829.34 738 828.68 738 828 C738.43828125 827.63390625 738.8765625 827.2678125 739.328125 826.890625 C743.74835056 823.11726172 747.94722445 819.16221685 752.0625 815.0625 C752.54428711 814.58522461 753.02607422 814.10794922 753.52246094 813.61621094 C756.22293672 810.90482414 758.78382863 808.11803364 761.27734375 805.21484375 C766.20277651 799.53102818 771.61575612 794.3386792 776.97265625 789.06640625 C781.33643768 784.74465161 785.52487163 780.35756824 789.52539062 775.69726562 C791.26106449 773.69951651 793.09656157 771.83780262 795 770 C798.14578336 766.89624046 801.07294016 763.68123702 803.953125 760.33203125 C806.58166848 757.33729756 809.28931423 754.42028991 812 751.5 C815.8313358 747.36806346 819.61636378 743.20960196 823.30078125 738.9453125 C825.29406428 736.6633471 827.33493027 734.42771426 829.375 732.1875 C833.32371445 727.81714316 837.0462721 723.29696921 840.75 718.71875 C842.93501569 716.07852271 845.19171391 713.5327028 847.5 711 C851.36533345 706.75348314 855.01398246 702.3698689 858.625 697.90625 C861.16664872 694.79607459 863.76589917 691.74094752 866.375 688.6875 C870.68126848 683.63594475 874.80760024 678.46656004 878.87890625 673.22460938 C881.94793611 669.29051302 885.120542 665.46899335 888.375 661.6875 C893.12862821 656.15137106 897.55388511 650.40293407 901.95043945 644.58105469 C905.86312946 639.42401986 909.91687126 634.40860346 914.0625 629.4375 C919.10430334 623.38511341 923.91750627 617.21086976 928.60180664 610.87866211 C931.97046816 606.33614946 935.44364148 601.89681591 939 597.5 C943.66094076 591.73325352 948.14667913 585.85653297 952.57250977 579.90795898 C956.23324302 574.99654978 959.98304996 570.16529533 963.78320312 565.36132812 C969.09417276 558.6371391 974.27592197 551.81476978 979.47167969 545.00146484 C981.70332143 542.07894105 983.94423885 539.16360981 986.1875 536.25 C986.98542969 535.21359375 987.78335937 534.1771875 988.60546875 533.109375 C989.39566406 532.08328125 990.18585938 531.0571875 991 530 C992.24766396 528.37848015 993.49508752 526.75677566 994.74243164 525.13500977 C995.58136716 524.04427958 996.42039724 522.95362212 997.25952148 521.86303711 C999.29429649 519.21842284 1001.32781303 516.57286614 1003.359375 513.92578125 C1009.92776637 505.37184674 1016.54619387 496.85737306 1023.17236328 488.34814453 C1024.98986598 486.01302017 1026.80575788 483.6766529 1028.62109375 481.33984375 C1032.0775311 476.89073532 1035.53730818 472.44424226 1039 468 C1039.72848145 467.06462402 1039.72848145 467.06462402 1040.47167969 466.11035156 C1046.28403852 458.65475062 1052.18879687 451.28195016 1058.16650391 443.95825195 C1061.63926855 439.69668978 1065.05806742 435.39831699 1068.4375 431.0625 C1077.07636659 419.99871626 1086.07547324 409.22353165 1095.16796875 398.53100586 C1098.73079399 394.33638525 1102.2134406 390.08063012 1105.6875 385.8125 C1108.7243277 382.1190609 1111.81960955 378.47701514 1114.91625977 374.83374023 C1117.7954532 371.44045891 1120.63204237 368.01732214 1123.4375 364.5625 C1128.33704474 358.54704472 1133.39203818 352.67074441 1138.45605469 346.79394531 C1140.46087769 344.46449569 1142.45858951 342.12900698 1144.45629883 339.79345703 C1163.13888417 317.96066816 1163.13888417 317.96066816 1172.80859375 307.40625 C1174.71371809 305.31434877 1176.58439061 303.20036615 1178.4375 301.0625 C1181.86836233 297.11254739 1185.41130271 293.268129 1188.95507812 289.41992188 C1191.48725408 286.6654424 1193.99027735 283.89266213 1196.4375 281.0625 C1205.39377784 270.7479241 1214.89120642 260.88578735 1224.21777344 250.90722656 C1226.56423393 248.3961924 1228.90914403 245.88371366 1231.25390625 243.37109375 C1233.00502241 241.49461805 1234.75641779 239.61840321 1236.5078125 237.7421875 C1238.81607924 235.26913652 1241.12329549 232.79511191 1243.4296875 230.3203125 C1246.34127776 227.19643603 1249.25638827 224.07586991 1252.17285156 220.95654297 C1253.41048488 219.63126325 1254.64677359 218.30472678 1255.88183594 216.97705078 C1264.34445326 207.8804893 1272.93890946 198.95185483 1281.79785156 190.23901367 C1285.83752467 186.24765101 1289.68849945 182.16826444 1293.39379883 177.86450195 C1295.73039327 175.15214875 1298.13736628 172.50814817 1300.5625 169.875 C1301.06499268 169.32859863 1301.56748535 168.78219727 1302.08520508 168.21923828 C1306.00888976 163.98855576 1310.07535563 159.92162547 1314.1875 155.875 C1319.0751287 151.05483248 1323.54080654 146.09308692 1327.80078125 140.69921875 C1330.20771568 137.74505944 1332.76952949 134.96451476 1335.375 132.1875 C1339.74296793 127.50319956 1343.75402535 122.62794712 1347.66577148 117.55883789 C1351.32250987 112.82738223 1355.1110131 108.21981165 1358.9375 103.625 C1367.85992022 92.85865338 1376.14855429 81.68719251 1384.1875 70.25 C1386.12302321 67.49860043 1388.05979812 64.74810277 1390 62 C1390.62865967 61.10909668 1390.62865967 61.10909668 1391.27001953 60.20019531 C1401.55984281 45.7200786 1401.55984281 45.7200786 1409 42 C1413.73981526 41.42174254 1417.11997823 41.52739571 1421.375 43.8125 C1427.51253374 48.92711145 1427.51253374 48.92711145 1428.30859375 53.9453125 C1428.71686322 60.84877804 1426.39017026 64.80916345 1422 70 C1419.79407497 72.33780099 1417.53162607 74.59229334 1415.21875 76.82421875 C1412.61300184 79.37950348 1410.24506628 82.0789354 1407.87109375 84.84765625 C1405.66920171 87.38052162 1403.39804174 89.84332522 1401.125 92.3125 C1397.05582609 96.77388345 1393.20022184 101.35944718 1389.41015625 106.05859375 C1387.18271453 108.77701128 1384.90731084 111.44131036 1382.60473633 114.09570312 C1368.46622188 130.40747981 1356.59082471 147.72988866 1346.26904297 166.68994141 C1344.85847748 169.25761564 1343.41582114 171.80598238 1341.97265625 174.35546875 C1313.59794144 224.92811878 1298.04670095 282.66540272 1280.98739624 337.80651855 C1275.52234475 355.45920707 1269.81853392 373.01661258 1263.85021973 390.50537109 C1262.93608514 393.18753253 1262.02601311 395.87105356 1261.11621094 398.5546875 C1250.03524475 431.19712784 1237.8778895 462.75382812 1222.62695312 493.68554688 C1220.7401869 497.52929511 1218.89007219 501.38934269 1217.05197144 505.25654602 C1203.85514097 532.99952391 1190.30909573 560.5708894 1176.56860352 588.0480957 C1174.9694776 591.24626538 1173.3732409 594.44585154 1171.77954102 597.64672852 C1163.21026874 614.85654696 1154.56759219 631.9803615 1145.22195435 648.78585815 C1143.37949763 652.12433028 1141.59564195 655.49266207 1139.8203125 658.8671875 C1132.62283867 672.51933538 1125.22348205 685.98348731 1117.36328125 699.26953125 C1114.53909463 704.05036519 1111.81304748 708.87956239 1109.11230469 713.73095703 C1102.73123945 725.18479521 1095.8902266 736.26452819 1088.76171875 747.26611328 C1087.00078361 749.99878396 1085.26242297 752.74448616 1083.53125 755.49609375 C1071.48551593 774.62975025 1058.64639775 793.19587805 1045.63037109 811.67871094 C1044.08621767 813.87724505 1042.55141301 816.08196693 1041.01953125 818.2890625 C1034.2329164 828.03546847 1027.1193782 837.50255736 1019.88671875 846.921875 C1016.98088812 850.70733528 1014.11285974 854.51793193 1011.26904297 858.35009766 C1006.25839305 865.10095317 1001.07525837 871.67756798 995.74267578 878.17700195 C990.68776537 884.34540662 985.81938747 890.64667656 981 897 C985.19625258 896.07787894 988.66287124 894.16416459 992.375 892.0625 C993.43521362 891.46296509 993.43521362 891.46296509 994.5168457 890.85131836 C1001.70517297 886.70912418 1008.38196573 881.99026622 1015 877 C1016.05574219 876.20851563 1017.11148437 875.41703125 1018.19921875 874.6015625 C1029.88574937 865.71807428 1041.24288418 856.40708332 1052.41357422 846.88525391 C1055.77868827 844.01929669 1059.18638604 841.21465498 1062.625 838.4375 C1067.32355951 834.61736683 1071.78213766 830.58288744 1076.234375 826.48046875 C1079.00517601 823.99535768 1081.85051362 821.64555667 1084.75 819.3125 C1088.51590929 816.27306399 1091.98454161 813.13405584 1095.34765625 809.66015625 C1097.66623953 807.3306104 1100.15270527 805.21980844 1102.640625 803.07421875 C1106.18358709 799.95946234 1109.63032211 796.74271543 1113.08935547 793.53540039 C1116.28355966 790.57656344 1119.49866502 787.64624038 1122.75 784.75 C1132.98012883 775.57297267 1143.05544731 766.17160911 1152.62890625 756.30859375 C1154.47582984 754.51035349 1156.33108464 752.86295294 1158.29443359 751.20117188 C1164.71055951 745.60042099 1170.64648315 739.49725779 1176.66015625 733.47265625 C1177.97702213 732.1564654 1179.2940363 730.8404229 1180.6111908 729.52452087 C1183.36034074 726.77683856 1186.10769119 724.0273731 1188.85375977 721.27661133 C1192.35590003 717.76877437 1195.86251151 714.26544693 1199.37049198 710.76345158 C1202.08764855 708.04992594 1204.80239743 705.33400155 1207.51644707 702.6173687 C1208.80777245 701.32538104 1210.09982772 700.03412245 1211.39265633 698.74363899 C1217.81294002 692.33245035 1224.12465765 685.921626 1230 679 C1231.2784322 677.60735373 1232.56508389 676.22210208 1233.8671875 674.8515625 C1234.52066162 674.1613501 1235.17413574 673.4711377 1235.84741211 672.76000977 C1236.51651611 672.05545654 1237.18562012 671.35090332 1237.875 670.625 C1243.67346471 664.49174022 1249.39173108 658.307936 1255 652 C1256.49898089 650.33241669 1257.99900456 648.66577024 1259.5 647 C1260.2425 646.17371094 1260.985 645.34742188 1261.75 644.49609375 C1263.24482689 642.83777017 1264.7448058 641.18407559 1266.25 639.53515625 C1270.08345683 635.32234692 1273.79936546 631.05955031 1277.375 626.625 C1281.05571847 622.07219493 1284.92648648 617.76582589 1288.91137695 613.4831543 C1292.71385014 609.37239043 1296.24263299 605.07733477 1299.75390625 600.71484375 C1302.0883059 597.89326505 1304.51990598 595.19409288 1307 592.5 C1311.03633055 588.10971431 1314.84030529 583.5882438 1318.5859375 578.94921875 C1321.33861873 575.5863153 1324.16181769 572.29070431 1327 569 C1331.30301644 564.00723336 1335.51166274 558.95132553 1339.6640625 553.83203125 C1342.3519695 550.57328113 1345.11045054 547.38115255 1347.875 544.1875 C1352.36216272 538.99602313 1356.64647724 533.6832815 1360.84838867 528.25952148 C1364.65996856 523.36713781 1368.66524622 518.66343758 1372.72387695 513.9753418 C1376.27561514 509.86674118 1379.7088739 505.68216771 1383.078125 501.421875 C1386.66376071 496.90339097 1390.34085677 492.45899037 1394 488 C1397.00333076 484.3360475 1400.00304481 480.66916943 1403 477 C1403.49016602 476.40026367 1403.98033203 475.80052734 1404.48535156 475.18261719 C1410.67302719 467.60719422 1416.81453878 460.00246964 1422.83325195 452.29199219 C1426.35330892 447.79375269 1429.94849827 443.3604651 1433.5625 438.9375 C1438.32872338 433.09939974 1442.97617224 427.18819963 1447.55078125 421.19921875 C1454.01081627 412.74268196 1460.63691006 404.42361441 1467.375 396.1875 C1471.85902674 390.70421764 1476.22105453 385.14464868 1480.5 379.5 C1485.30128587 373.16629648 1490.23097299 366.95806156 1495.265625 360.80859375 C1498.72770144 356.57716699 1502.13646315 352.31010596 1505.5 348 C1509.98182529 342.25975939 1514.5595691 336.60306321 1519.1640625 330.9609375 C1522.65530083 326.67548382 1526.09818888 322.35670547 1529.5 318 C1533.98263195 312.25908539 1538.56044024 306.60112223 1543.16625977 300.95874023 C1546.63893745 296.69688768 1550.05813082 292.39858841 1553.4375 288.0625 C1559.28879055 280.56330819 1565.35128867 273.24194701 1571.41650391 265.91552734 C1573.55732 263.32581981 1575.68602531 260.72649871 1577.8125 258.125 C1578.51375 257.26777344 1579.215 256.41054688 1579.9375 255.52734375 C1581.33613775 253.81348271 1582.73188141 252.09725657 1584.125 250.37890625 C1588.84488853 244.57175768 1593.66662833 238.86509762 1598.5534668 233.19873047 C1601.63689115 229.61572947 1604.65504799 225.99083279 1607.625 222.3125 C1611.47811177 217.56591304 1615.53424543 213.04232361 1619.671875 208.54296875 C1621.60694262 206.42932946 1623.50208297 204.29340152 1625.375 202.125 C1628.97912141 197.97686027 1632.71575625 193.95561762 1636.44995117 189.92504883 C1641.61470659 184.3469192 1646.75242431 178.73954964 1651.73730469 172.99951172 C1659.13088333 164.57808294 1667.11686067 156.7325902 1675.04760742 148.82202148 C1677.56349286 146.31150926 1680.07397186 143.79567936 1682.58398438 141.27929688 C1684.20280437 139.66113751 1685.82193445 138.04328828 1687.44140625 136.42578125 C1688.18121231 135.68395096 1688.92101837 134.94212067 1689.6832428 134.17781067 C1693.73427998 130.14473054 1697.87095882 126.275637 1702.21252441 122.55622864 C1704.60850912 120.47021413 1706.88411582 118.26991096 1709.17236328 116.06738281 C1717.00886869 108.55387582 1725.31976379 101.93756698 1734.03222656 95.47558594 C1735.83216233 94.12585743 1737.60482366 92.74981033 1739.3671875 91.3515625 C1768.7985586 68.08536639 1807.18913812 45.19108277 1846 49 C1857.14016178 51.08321025 1867.92056125 55.89029827 1875 65 C1882.29952379 76.84962483 1883.87070637 90.09375945 1881.3125 103.640625 C1877.8614022 115.77698561 1871.81264677 125.72183723 1860.80859375 132.3125 C1848.84556732 138.13350749 1836.38814965 137.99350092 1823.9375 133.875 C1812.07560377 129.28874658 1803.1076082 121.80856511 1793.70092773 113.5 C1791.89626627 111.90852016 1790.08706517 110.32286468 1788.26953125 108.74609375 C1787.71628174 108.26454834 1787.16303223 107.78300293 1786.59301758 107.28686523 C1779.8845618 101.8676667 1772.26480902 102.22993112 1764 103 C1749.14881381 105.88933583 1735.59393081 115.74141811 1724 125 C1722.70835937 126.00353516 1722.70835937 126.00353516 1721.390625 127.02734375 C1715.35221158 131.76243502 1709.64962345 136.81089899 1704 142 C1702.99114876 142.91565482 1701.98202276 143.83100697 1700.97265625 144.74609375 C1690.70003333 154.09828714 1680.49295975 163.66620541 1671.50390625 174.27734375 C1669.90894002 176.10430507 1668.22982158 177.80059287 1666.5 179.5 C1663.48586418 182.46735323 1660.70082667 185.57345292 1657.94140625 188.77734375 C1655.71195939 191.32976883 1653.41998618 193.81887514 1651.125 196.3125 C1647.83567762 199.91391171 1644.67982364 203.57307275 1641.625 207.375 C1637.75910491 212.16980275 1633.65276702 216.66715828 1629.44628906 221.15917969 C1625.5019544 225.39512864 1621.83511999 229.806439 1618.2109375 234.3203125 C1615.8906505 237.13253315 1613.46928866 239.81797263 1611 242.5 C1606.96489979 246.88894746 1603.16169696 251.40862766 1599.41796875 256.046875 C1596.64498671 259.43358651 1593.79763716 262.74944835 1590.9375 266.0625 C1586.93937693 270.70211296 1583.03695917 275.39385185 1579.23828125 280.19921875 C1576.30191256 283.87352302 1573.3073188 287.49828416 1570.3125 291.125 C1561.50843905 301.79364544 1552.76562344 312.51092302 1544.14453125 323.328125 C1541.90129084 326.1229819 1539.63935364 328.90193625 1537.375 331.6796875 C1532.24272548 337.976228 1527.16414533 344.30742843 1522.16479492 350.70996094 C1518.12198213 355.87460136 1513.98272721 360.95778496 1509.8359375 366.0390625 C1506.34469917 370.32451618 1502.90181112 374.64329453 1499.5 379 C1495.01962585 384.73802304 1490.4448079 390.39371495 1485.84033203 396.0324707 C1482.29888377 400.37755126 1478.81842374 404.76448158 1475.375 409.1875 C1471.41208135 414.27286381 1467.31106257 419.21445872 1463.12011719 424.11279297 C1459.38278433 428.50038467 1455.81281972 433.00280407 1452.2722168 437.54980469 C1448.12740034 442.86468895 1443.88388077 448.09550003 1439.62548828 453.31958008 C1436.73394443 456.86696022 1433.85240728 460.4209795 1431 464 C1427.03434252 468.97585654 1423.00937888 473.90269594 1418.98828125 478.83374023 C1415.43575421 483.20124071 1411.95048228 487.61421153 1408.5 492.0625 C1404.08481442 497.73963002 1399.43957786 503.18544514 1394.70410156 508.59692383 C1390.00939755 513.96440447 1385.4810262 519.45285604 1381 525 C1375.76231729 531.44783323 1370.46377074 537.83629802 1365.08422852 544.16577148 C1362.20479732 547.5591538 1359.36810273 550.98249917 1356.5625 554.4375 C1352.60723975 559.29843701 1348.54026529 564.0540756 1344.44824219 568.79956055 C1341.34573369 572.40545946 1338.30541477 576.05194825 1335.3125 579.75 C1331.75904431 584.12939404 1328.037352 588.31395765 1324.23828125 592.48046875 C1321.97152842 595.03204917 1319.82459913 597.65171532 1317.6875 600.3125 C1313.80044748 605.12213393 1309.67904282 609.64210063 1305.453125 614.15014648 C1301.43220527 618.46479389 1297.71302597 622.97565145 1294.01953125 627.57421875 C1291.71800104 630.33872603 1289.25390084 632.83682074 1286.671875 635.3359375 C1284.27509166 637.72152091 1282.09079027 640.27255926 1279.8828125 642.83203125 C1277.7842468 645.24842951 1275.645603 647.62529024 1273.5 650 C1270.86819555 652.91488929 1268.25713074 655.84273211 1265.6875 658.8125 C1261.09957455 664.07698588 1256.32832177 669.1746472 1251.58056641 674.29443359 C1249.54688913 676.4889454 1247.5175101 678.68739952 1245.48876953 680.88647461 C1244.49408549 681.96451115 1243.49896626 683.0421463 1242.50341797 684.11938477 C1239.98342025 686.84657865 1237.46906964 689.57862385 1234.96484375 692.3203125 C1229.34373923 698.46254308 1223.62949092 704.4558918 1217.66796875 710.26953125 C1215.73660831 712.24613586 1213.96898884 714.2002075 1212.19238281 716.30322266 C1206.52909708 722.79518998 1200.34787832 728.79579859 1194.25390625 734.87890625 C1192.91529513 736.21819236 1191.57683237 737.55762676 1190.23851013 738.89720154 C1187.4437495 741.69342996 1184.64720514 744.48785859 1181.84936523 747.28100586 C1178.28099423 750.84368017 1174.71713236 754.41082597 1171.154603 757.97934055 C1168.39475402 760.74282 1165.63250678 763.50389242 1162.8695507 766.26426506 C1161.55523429 767.57791907 1160.24164731 768.89230333 1158.92883492 770.2074604 C1146.529314 782.62426877 1146.529314 782.62426877 1140.58860779 787.63157654 C1137.73356599 790.09090363 1135.12985711 792.80456042 1132.5 795.5 C1128.50147396 799.59823991 1124.38550767 803.45715821 1120.05273438 807.20117188 C1116.61794459 810.2111066 1113.315188 813.35963637 1110 816.5 C1105.36697248 820.88870771 1100.6813581 825.18667504 1095.86181641 829.37011719 C1093.25358726 831.65342924 1090.72407241 834.01226263 1088.1875 836.375 C1083.53476493 840.67937039 1078.72083612 844.71312037 1073.78125 848.6875 C1070.75977188 851.19974023 1067.87599776 853.82441699 1065 856.5 C1059.52238041 861.58386099 1053.82319244 866.31890466 1048 871 C1046.77109981 872.00785316 1045.54330207 873.01705155 1044.31640625 874.02734375 C965.46988589 938.82722433 965.46988589 938.82722433 944 937 C938.23151125 932.56270096 938.23151125 932.56270096 937.5 927.625 C937.70996472 917.86164063 946.4220608 908.97712216 952.10473633 901.5456543 C1012.08958002 822.6308277 1050.00607647 728.43777345 1084.27809143 636.30514526 C1086.38407457 630.64539737 1088.50417458 624.99110748 1090.6328125 619.33984375 C1097.05334159 602.28699391 1103.40675143 585.21144574 1109.67559814 568.10220337 C1131.58419294 508.32139091 1153.73278669 448.59235762 1181 391 C1181.29884094 390.36837952 1181.59768188 389.73675903 1181.90557861 389.08599854 C1195.35089208 360.69600802 1209.83310975 333.06770493 1226.08740234 306.16943359 C1227.89884228 303.16763206 1229.69529588 300.15738063 1231.48828125 297.14453125 C1240.49347642 282.08925385 1250.16053511 267.51716471 1260 253 C1260.54817383 252.18885742 1261.09634766 251.37771484 1261.66113281 250.54199219 C1275.15625481 230.59930029 1289.52625555 211.23952941 1304 192 C1303.55309814 192.4218457 1303.10619629 192.84369141 1302.64575195 193.27832031 C1300.53534865 195.26960319 1298.42402505 197.25990665 1296.3125 199.25 C1295.53374512 199.98436279 1294.75499023 200.71872559 1293.95263672 201.4753418 C1290.03438974 205.16473612 1286.10148665 208.83388238 1282.1184082 212.453125 C1275.96035776 218.05849118 1270.0223405 223.87133271 1264.125 229.75 C1263.32787598 230.54253174 1262.53075195 231.33506348 1261.70947266 232.15161133 C1258.208183 235.6620859 1254.78396757 239.18972088 1251.5546875 242.953125 C1246.50402242 248.82151681 1240.89470236 254.14850215 1235.3828125 259.578125 C1230.97877203 263.94200705 1226.72543836 268.35035141 1222.68945312 273.05664062 C1219.64968075 276.5532574 1216.43906067 279.89004824 1213.25 283.25 C1206.76737009 290.10891063 1200.35933177 297.02679609 1194 304 C1193.0434978 305.040851 1192.08645372 306.08120427 1191.12890625 307.12109375 C1186.60762174 312.03307829 1182.11651277 316.96373407 1177.7421875 322.0078125 C1175.68499601 324.36020635 1173.59403085 326.68034966 1171.5 329 C1166.66772724 334.36016811 1161.90181144 339.77009574 1157.21484375 345.2578125 C1156.18492521 346.46356676 1155.15497647 347.66929523 1154.125 348.875 C1153.34552002 349.7877771 1153.34552002 349.7877771 1152.55029297 350.71899414 C1149.52107467 354.25623858 1146.44851417 357.74392577 1143.3125 361.1875 C1139.55850824 365.32427804 1136.02853544 369.60721231 1132.515625 373.94921875 C1129.57074449 377.52057229 1126.54264851 381.01197894 1123.5 384.5 C1119.05423499 389.60298167 1114.68736329 394.75291093 1110.42578125 400.01171875 C1107.98116189 403.02320636 1105.51679521 406.01749418 1103.04785156 409.0090332 C1093.28275561 420.84145461 1083.54346042 432.69194242 1074.09521484 444.77978516 C1070.74220357 449.06750157 1067.34667069 453.31934946 1063.9375 457.5625 C1059.87397539 462.62652588 1055.86781207 467.72690266 1051.92285156 472.8840332 C1048.3709401 477.52684891 1044.78161112 482.13979901 1041.1875 486.75 C1035.41736933 494.15685797 1029.69932374 501.60201012 1024.00390625 509.06640625 C1021.40803842 512.46842389 1018.80020588 515.86089739 1016.1875 519.25 C1007.0558948 531.11366269 997.96539104 543.0101211 989 555 C981.73363261 564.71756695 974.36532414 574.35734938 967 584 C966.39945801 584.78648926 965.79891602 585.57297852 965.18017578 586.38330078 C961.457197 591.2584061 957.73060409 596.13072741 954 601 C953.57058105 601.56058105 953.14116211 602.12116211 952.69873047 602.69873047 C949.8068605 606.47177965 946.90571165 610.23760795 944 614 C943.47825195 614.67643555 942.95650391 615.35287109 942.41894531 616.04980469 C935.61132009 624.86868445 928.73492913 633.61933868 921.68212891 642.24365234 C918.25712843 646.43601975 914.88984663 650.66733392 911.5625 654.9375 C905.70872181 662.44004742 899.64293168 669.7639273 893.57470703 677.09326172 C891.47508831 679.63559075 889.39353488 682.19244908 887.3125 684.75 C883.62476619 689.26559242 879.86638643 693.71743759 876.08959961 698.15844727 C873.13982186 701.63299724 870.24310035 705.14484644 867.375 708.6875 C863.79833687 713.08514096 860.05675177 717.29268157 856.23828125 721.48046875 C853.97152842 724.03204917 851.82459913 726.65171532 849.6875 729.3125 C845.2751195 734.76808779 840.55741476 739.88531909 835.7734375 745.01171875 C833.63645686 747.3035841 831.54776652 749.62758757 829.5 752 C825.89782684 756.16721993 822.14350007 760.18925335 818.39794922 764.22705078 C815.76226088 767.0736601 813.15534109 769.93363904 810.625 772.875 C807.17705073 776.85797588 803.59091987 780.70885278 800 784.5625 C799.41814941 785.18817871 798.83629883 785.81385742 798.23681641 786.45849609 C795.37681483 789.51790177 792.48429941 792.52634135 789.5 795.46484375 C787.20642479 797.73858978 785.05430189 800.0655102 782.96484375 802.52734375 C777.7942566 808.51426349 772.12078425 814.02785616 766.52124023 819.60913086 C764.56704376 821.5579687 762.61824853 823.51209272 760.66992188 825.46679688 C755.15337136 830.98598988 749.65769157 836.45595902 743.70678711 841.51147461 C740.64662459 844.18030752 737.83911511 847.10026465 735 850 C730.84993617 854.19329366 726.69200681 858.28241664 722.1875 862.09765625 C719.05411173 864.82258498 716.03429843 867.66566057 713 870.5 C708.07396151 875.09110909 703.11658324 879.62094227 698 884 C696.95430999 884.8996035 695.90874931 885.79935733 694.86328125 886.69921875 C691.84856892 889.29152498 688.82736357 891.8761382 685.80371094 894.45800781 C684.08795684 895.92480572 682.37582907 897.39574033 680.6640625 898.8671875 C624.02541844 947.39385932 624.02541844 947.39385932 603.8125 947.0625 C602.554375 947.041875 601.29625 947.02125 600 947 C595.125 943.25 595.125 943.25 594 941 C593.71205801 934.96573742 595.18297144 930.77656225 598.99609375 926.1640625 C602.34296554 922.54970193 605.836135 919.08943746 609.34765625 915.63671875 C612.76769112 912.23683136 615.92062362 908.70856134 619 905 C619.67603271 904.18668213 619.67603271 904.18668213 620.36572266 903.35693359 C643.38562187 875.57277546 662.88253685 845.74992504 680 814 C680.45310547 813.16227051 680.90621094 812.32454102 681.37304688 811.46142578 C723.01620017 734.10169965 750.26318647 649.18668646 796.375 507.8125 C823.40652248 423.0115225 852.08283907 338.13913195 893.80761719 259.26123047 C894.55269795 257.84826199 895.28562961 256.42874078 896 255 C895.32759277 254.87995605 894.65518555 254.75991211 893.96240234 254.63623047 C872.78813272 250.81544476 851.89237459 246.38310783 832 238 C831.32694824 237.71962891 830.65389648 237.43925781 829.96044922 237.15039062 C813.70814021 230.26813217 799.32327135 220.52220521 786 209 C785.02353516 208.20529297 785.02353516 208.20529297 784.02734375 207.39453125 C779.48767766 203.67300278 775.73835509 199.51570682 772 195 C771.35587158 194.24033936 771.35587158 194.24033936 770.69873047 193.46533203 C757.27494178 177.59750074 747.86887411 160.08109988 738.41796875 141.640625 C728.84217745 122.97572043 718.94979964 103.83883501 705 88 C704.1028125 86.96166016 704.1028125 86.96166016 703.1875 85.90234375 C688.41185552 69.92617815 666.27451693 64.28849302 645.25 63.25 C584.02112763 60.9676297 526.1487627 88.08691363 476.4375 121.6875 C475.85984894 122.07738098 475.28219788 122.46726196 474.68704224 122.86895752 C457.75816735 134.33391004 442.07337096 147.19596554 427 161 C426.23405518 161.69826904 426.23405518 161.69826904 425.45263672 162.41064453 C416.37113453 170.6937729 407.40750798 179.01249066 399.41015625 188.37109375 C398.32370902 189.62607573 397.17374345 190.82625655 396 192 C396.60327839 206.05397504 397.44916243 220.06999138 398.51879883 234.09570312 C398.67033662 236.11128415 398.82161951 238.12688435 398.97267151 240.14250183 C399.37938606 245.56012965 399.78961897 250.97748569 400.20053315 256.39479637 C400.6358391 262.1419868 401.06780843 267.88942811 401.50016785 273.63684082 C402.32178778 284.55212739 403.14633986 295.46719036 403.97197312 306.38217402 C404.8960928 318.60100611 405.81696836 330.82008194 406.73754084 343.03918171 C408.34240378 364.34007051 409.95009351 385.64074466 411.55988789 406.94126129 C412.787918 423.19058285 414.0147056 439.43999798 415.2409668 455.68945312 C415.37481417 457.46308306 415.37481417 457.46308306 415.51136553 459.27254391 C416.00760526 465.84836047 416.50381912 472.42417899 417 479 C418.26361359 479.32433517 419.52722717 479.64867035 420.82913208 479.98283386 C421.53991472 480.1652724 422.25069736 480.34771093 422.98301888 480.53567791 C427.23187327 481.51379165 431.53763486 481.33761988 435.875 481.3125 C436.8851416 481.30758545 437.8952832 481.3026709 438.93603516 481.29760742 C481.12328405 480.6487264 519.57795749 458.65132308 551 432 C552.03020843 431.13937572 553.06065322 430.2790343 554.09130859 429.41894531 C562.17184085 422.63112729 569.7869983 415.4998679 577.20727539 407.99853516 C578.95591224 406.2313929 580.7126699 404.47263385 582.47070312 402.71484375 C588.18944704 396.97834054 593.77730109 391.19797356 599 385 C599.88833727 383.97830883 600.77761258 382.95743227 601.66796875 381.9375 C645.86622589 330.40712888 670.89497091 270.03919321 690.35498047 205.75390625 C690.64811127 204.79332306 690.94124207 203.83273987 691.24325562 202.8430481 C691.79895569 201.02117577 692.3494976 199.19771998 692.89419556 197.37252808 C693.14245087 196.5610733 693.39070618 195.74961853 693.64648438 194.91357422 C693.96764221 193.84778641 693.96764221 193.84778641 694.29528809 192.76046753 C695 191 695 191 697 189 C698.65 189.33 700.3 189.66 702 190 C712.047117 207.24085276 697.59057507 243.60514798 692.84375 261.671875 C686.74674425 284.50067778 679.23920019 307.01530036 669.20458984 328.42919922 C667.9867078 331.02836783 666.79883984 333.63985866 665.61328125 336.25390625 C646.10483405 378.7524782 619.20520505 415.6816661 586.38818359 448.78604126 C584.98292322 450.20416111 583.58124388 451.62582674 582.1796875 453.04760742 C576.09961761 459.1347853 569.75104145 464.67090466 563 470 C562.10414185 470.72316406 562.10414185 470.72316406 561.19018555 471.4609375 C533.56659442 493.74911705 499.63317741 510.91703176 464 515 C463.071875 515.10957031 462.14375 515.21914063 461.1875 515.33203125 C447.25200927 516.78364487 432.70203806 516.08504305 419 513 C419.15465036 513.70582655 419.30930073 514.4116531 419.46863747 515.13886833 C420.00615696 518.03315226 420.28714199 520.84272407 420.50180054 523.77810669 C420.5882228 524.93846971 420.67464506 526.09883272 420.76368618 527.29435825 C420.90072256 529.19850199 420.90072256 529.19850199 421.04052734 531.14111328 C421.14100285 532.50536354 421.24176768 533.86959251 421.34279728 535.23380184 C421.56141004 538.19361741 421.77807031 541.15356727 421.99325371 544.11363411 C422.34177449 548.90692535 422.69484275 553.69987529 423.04859924 558.49278259 C423.49306326 564.51846556 423.9365508 570.54421882 424.37876469 576.57006735 C425.78999105 595.79900004 427.21994997 615.02654029 428.65234375 634.25390625 C428.72171717 635.18531614 428.79109059 636.11672603 428.86256623 637.07636046 C431.65239086 674.52744634 434.48909684 711.97466238 437.41913247 749.4150517 C437.81884353 754.52844272 438.21353272 759.64220494 438.605896 764.75616455 C441.5109539 802.93464804 441.5109539 802.93464804 445.63671875 840.99609375 C445.73559828 841.79024248 445.83447781 842.58439121 445.93635368 843.40260506 C448.94345836 867.20186637 453.79103134 890.17430961 468 910 C468.43441406 910.63035156 468.86882813 911.26070312 469.31640625 911.91015625 C479.98695221 925.89334931 497.66333336 931.24764628 514 935 C516.66953577 935.65574603 519.33473397 936.32701291 522 937 C522 938.98 522 940.96 522 943 C481.07943452 944.1493038 440.16711569 944.15578871 399.23426187 944.12856841 C391.92637463 944.12422348 384.61850462 944.12733652 377.31061846 944.1321975 C370.12966361 944.13677585 362.94871606 944.13735776 355.76776022 944.13475883 C351.53444511 944.13322783 347.30114152 944.1329129 343.06782722 944.13629532 C324.01892324 944.14951886 305.03118376 943.94050318 286 943 C286 941.02 286 939.04 286 937 C287.24366333 936.89510254 287.24366333 936.89510254 288.51245117 936.78808594 C333.72000103 934.05959758 333.72000103 934.05959758 370.453125 910.30078125 C390.18411495 885.73669528 384.35231047 847.35850543 382.5625 818.0625 C382.478923 816.66625216 382.39556459 815.26999123 382.31240845 813.87371826 C380.09184472 776.67063369 377.4891712 739.49096392 374.94875938 702.3086378 C374.40371054 694.33082193 373.85947506 686.35295091 373.31640625 678.375 C373.2674218 677.65541021 373.21843734 676.93582041 373.16796851 676.19442487 C371.71929834 654.90339188 370.31496117 633.61003329 368.96484375 612.3125 C368.84568509 610.43321115 368.84568509 610.43321115 368.72411919 608.51595688 C367.9753173 596.69277735 367.23270154 584.86922184 366.49826717 573.04514122 C365.23268527 552.68532952 363.932153 532.33150861 362.3671875 511.9921875 C362.30489079 511.17936436 362.24259407 510.36654121 362.17840958 509.52908707 C361.57283726 501.67144011 360.94363594 493.82584296 360 486 C359.39945801 485.7225293 358.79891602 485.44505859 358.18017578 485.15917969 C347.51711079 479.48972475 339.44850933 466.87780876 333 457 C332.09894531 455.67742187 332.09894531 455.67742187 331.1796875 454.328125 C305.3050746 413.65082657 302.80526624 358.7887111 312.59106445 312.89404297 C317.71984682 290.69521171 325.92359337 266.86773367 338.50634766 247.70605469 C345.6907551 236.73359704 341.60063612 219.4841742 340.6796875 206.921875 C340.5385167 204.94388183 340.397839 202.96585342 340.25761414 200.98779297 C339.95777919 196.76945787 339.65511383 192.55133983 339.35012817 188.33337402 C338.6239782 178.28682107 337.91285523 168.23919942 337.20096779 158.1916275 C337.03784504 155.8901775 336.87454312 153.58874018 336.71106529 151.28731537 C334.99372787 127.10801364 333.36238946 102.92328126 331.76029205 78.73609924 C331.5621091 75.74409857 331.36369201 72.75211349 331.16522217 69.76013184 C330.44103327 58.84024897 329.71908756 47.92022001 329 37 C326.93836694 52.70990893 324.88090554 68.42036189 322.82656097 84.13122559 C322.48342695 86.75533846 322.1402312 89.37944325 321.79697418 92.00354004 C318.08694145 120.36843605 314.37979456 148.73337717 310.84765625 177.12109375 C310.6635041 178.60003144 310.6635041 178.60003144 310.47563171 180.10884666 C309.98086918 184.08248498 309.48633727 188.05615196 308.99189377 192.02982998 C302.60092493 243.38316926 295.67903074 294.65837796 288.69235438 345.93328923 C287.4398105 355.12597313 286.18808887 364.31876868 284.9375 373.51171875 C284.82712568 374.32298477 284.71675135 375.1342508 284.60303235 375.97010064 C280.93371834 402.94496602 277.37050629 429.93144482 273.9375 456.9375 C268.91946398 496.39282132 263.61039841 535.80740735 258.27167702 575.22034693 C257.93787571 577.68472624 257.60414272 580.1491148 257.27043152 582.61350632 C254.72786596 601.38957717 252.18249934 620.16526756 249.63568497 638.94076252 C245.90112308 666.46896596 245.90112308 666.46896596 242.1875 694 C242.08482944 694.76340824 241.98215889 695.52681648 241.87637711 696.31335831 C236.02707317 739.83159661 230.4587206 783.38702345 224.84588623 826.93623352 C221.79377543 850.61445614 218.72789146 874.2908806 215.652771 897.96612549 C215.10108107 902.21388826 214.5500127 906.46173084 213.99957275 910.70965576 C211.09121305 933.15288977 208.15188109 955.58944151 205 978 C203.68 977.67 202.36 977.34 201 977 C193.29161449 921.73495077 185.58904218 866.46908532 178 811.1875 C177.86071957 810.17329357 177.72143913 809.15908714 177.57793808 808.11414719 C174.161375 783.2338961 170.77197966 758.35008345 167.41488266 733.46173668 C166.88566249 729.53904577 166.35600151 725.61641463 165.82620239 721.69380188 C165.47332005 719.08078105 165.12044528 716.4677592 164.76757812 713.85473633 C164.59327711 712.56408673 164.4189761 711.27343714 164.23939323 709.94367695 C163.39558967 703.69294101 162.5533756 697.44199946 161.71508789 691.19052124 C158.18777194 664.8866974 154.53563941 638.60857218 150.62109375 612.359375 C147.4107423 590.82594139 144.33954947 569.27869859 141.3984375 547.70703125 C141.30014302 546.98645609 141.20184855 546.26588093 141.10057545 545.52347016 C140.17538053 538.74059597 139.25163763 531.95752457 138.3292942 525.17426205 C135.76998866 506.35235631 133.19374874 487.53278678 130.60546875 468.71484375 C130.47875266 467.79351937 130.35203658 466.872195 130.22148061 465.9229517 C123.04297816 413.74739959 115.62310519 361.60589692 108.19862461 309.46488142 C107.69059993 305.89677238 107.18273217 302.32864103 106.67491913 298.76050186 C100.34011723 254.24997571 94.00053691 209.74034061 87.51628876 165.25130844 C84.03358388 141.34689468 80.65585917 117.42853565 77.33959961 93.50048828 C76.56719304 87.92864588 75.78903293 82.35762062 75.00981045 76.78672791 C74.39711416 72.40002408 73.78807566 68.0128183 73.18010139 63.62545776 C72.89395778 61.56482633 72.60650593 59.50437607 72.31765556 57.44412231 C71.92201912 54.61951798 71.53152167 51.79424905 71.14233398 48.96875 C71.02556305 48.14330185 70.90879211 47.3178537 70.78848267 46.46739197 C70.21669729 42.27427177 69.87576353 38.2449099 70 34 C69.34 34 68.68 34 68 34 C68.01287048 34.74293304 68.02574097 35.48586609 68.03900146 36.25131226 C68.11911708 44.69077457 67.69194165 53.04072414 67.06859207 61.44998932 C66.88165463 63.972613 66.70057673 66.49560836 66.52059937 69.01873779 C66.24845995 72.82570354 65.97388718 76.63248312 65.6975708 80.43914795 C64.88025158 91.71360618 64.08494123 102.98963656 63.2890625 114.265625 C63.20015621 115.52382931 63.11124992 116.78203362 63.01964951 118.07836533 C61.45020788 140.31457268 59.94364754 162.55473036 58.4609375 184.796875 C58.37758101 186.04698844 58.37758101 186.04698844 58.29254055 187.3223567 C57.70876478 196.07784968 57.1256844 204.8333889 56.54291749 213.58894908 C51.65587279 287.01017832 46.64481097 360.42230191 41.55834216 433.82997984 C40.66042937 446.79008561 39.76417722 459.75030605 38.86818469 472.71054471 C38.59789577 476.62016675 38.32757938 480.52978689 38.05725384 484.43940639 C37.96778313 485.73339 37.87831243 487.0273736 37.78613049 488.36056882 C37.69654645 489.65619125 37.60696241 490.95181368 37.5146637 492.28669739 C37.33336896 494.90873015 37.15207483 497.53076295 36.97078133 500.15279579 C36.88089227 501.45285254 36.79100321 502.75290928 36.69839025 504.09236169 C36.51662034 506.72133355 36.33485558 509.35030576 36.15309596 511.97927833 C35.513177 521.23505612 34.87313125 530.49082513 34.23291016 539.74658203 C34.18738196 540.4048055 34.14185376 541.06302898 34.09494592 541.74119861 C33.01359456 557.37439467 31.93065027 573.00747882 30.84417725 588.64031982 C30.79614655 589.33141949 30.74811586 590.02251916 30.69862969 590.73456125 C30.45554556 594.23211804 30.21243928 597.72967328 29.96932435 601.22722793 C29.87196491 602.62788502 29.77460549 604.02854212 29.67724609 605.42919922 C29.62907929 606.12214101 29.58091249 606.81508281 29.53128609 607.52902284 C27.86561676 631.49273657 26.20835722 655.45702109 24.55914497 679.42187309 C23.58044109 693.63965364 22.59549618 707.85697129 21.60187882 722.07371753 C20.92727564 731.73438797 20.2605648 741.39558335 19.59989005 751.05721623 C19.22056359 756.60105567 18.83796001 762.14461208 18.44579124 767.68755913 C11.35608309 840.46087502 11.35608309 840.46087502 36.859375 906.546875 C54.96343111 927.29385901 80.75789639 932.42184352 107 935 C108.0430127 935.10296387 109.08602539 935.20592773 110.16064453 935.31201172 C116.43668472 935.92067319 122.71572065 936.48349659 129 937 C129 938.98 129 940.96 129 943 C106.99901804 944.20987758 85.03123733 944.05503092 63.00687551 943.89946485 C57.89141841 943.8645801 52.77592416 943.83635451 47.66043091 943.80735779 C38.01749678 943.75171892 28.37460914 943.69027709 18.73172486 943.62663645 C7.73498564 943.55435179 -3.26179029 943.48870974 -14.25857377 943.42356598 C-36.83909684 943.28965568 -59.41956253 943.1475975 -82 943 C-82 941.02 -82 939.04 -82 937 C-80.85337891 936.76216797 -80.85337891 936.76216797 -79.68359375 936.51953125 C-58.41934767 931.88796863 -39.0507771 924.8684117 -26.67578125 905.7890625 C-25.84626953 904.40847656 -25.84626953 904.40847656 -25 903 C-24.35417969 901.93523438 -23.70835937 900.87046875 -23.04296875 899.7734375 C-14.55243628 885.17021067 -10.23654975 869.17342659 -6.75 852.75 C-6.51587402 851.65864746 -6.28174805 850.56729492 -6.04052734 849.44287109 C-1.37845922 826.19937017 -0.06755399 802.40720592 1.58346915 778.80454743 C1.90224512 774.26711081 2.22817475 769.73018675 2.55316162 765.19319153 C3.11525178 757.33279448 3.67295262 749.47209621 4.22758865 741.61116982 C5.03915815 730.10892432 5.85768308 718.60718139 6.67771988 707.10553684 C8.02148431 688.25566967 9.35987808 669.40542522 10.69482422 650.55493164 C11.96820622 632.57394772 13.24385419 614.5931273 14.52294922 596.61254883 C14.60079219 595.51827807 14.67863516 594.42400732 14.75883701 593.29657684 C15.1505982 587.78966529 15.54241258 582.28275753 15.93425798 576.77585196 C16.71061091 565.86508001 17.48668751 554.9542884 18.26263428 544.04348755 C18.3388198 542.97223653 18.41500532 541.90098551 18.49349949 540.79727234 C19.64055379 524.66759564 20.78594294 508.53780123 21.93023682 492.40792847 C22.00466268 491.35885647 22.07908854 490.30978447 22.15576974 489.22892241 C22.45339287 485.03375803 22.75101049 480.83859326 23.04862656 476.64342838 C25.24394353 445.6987078 27.44243305 414.75422878 29.65917969 383.81103516 C29.76036703 382.3984532 29.86155434 380.98587124 29.96274161 379.57328928 C30.35163943 374.14448652 30.74061139 368.71568908 31.12962329 363.2868945 C34.96329183 309.78521102 38.71445375 256.27833352 42.38167894 202.76498622 C42.94688765 194.51935855 43.51433037 186.27388561 44.08221912 178.02844214 C44.71498994 168.84034948 45.34642084 159.65216522 45.97720337 150.46393585 C46.23832413 146.66057772 46.49987495 142.85724957 46.7618103 139.05394745 C47.06507025 134.64965442 47.36713531 130.24528094 47.66831398 125.84084511 C47.77715056 124.25183951 47.88636978 122.66286006 47.99603844 121.07391167 C48.5637311 112.84501334 49.0951808 104.61523305 49.55786133 96.37969971 C49.59909559 95.65076405 49.64032986 94.9218284 49.68281364 94.17080379 C51.7995124 57.04756083 51.7995124 57.04756083 36.375 24.1875 C28.2852177 15.71395193 18.09557643 11.93619642 7 9 C5.5617233 8.58602233 4.12404222 8.1699569 2.6875 7.75 C1.800625 7.5025 0.91375 7.255 0 7 C0 4.69 0 2.38 0 0 Z M1042 92 C1041.2678125 92.68964844 1040.535625 93.37929688 1039.78125 94.08984375 C1035.30943857 98.42856555 1031.33768922 103.0758668 1027.44921875 107.94140625 C1025.78667216 110.0176008 1024.11210564 112.06124742 1022.39453125 114.08984375 C1008.56929951 130.61837383 996.65360233 149.29235603 986 168 C985.43007324 168.98395752 985.43007324 168.98395752 984.84863281 169.98779297 C972.33727721 191.61887162 960.6991987 214.53030608 955 239 C982.98940453 241.29004219 1014.25031609 230.34443694 1039 218 C1040.1768335 217.41581299 1040.1768335 217.41581299 1041.37744141 216.81982422 C1052.00129307 211.49627492 1062.19867249 205.71911308 1072 199 C1072.57556641 198.60844727 1073.15113281 198.21689453 1073.74414062 197.81347656 C1106.64782795 175.30329135 1138.60644007 143.65648585 1147.3046875 103.2890625 C1149.57175465 90.86367909 1149.58700702 77.58057577 1142.52734375 66.73828125 C1136.49674843 59.0253922 1128.84612973 55.89232263 1119.3125 54.5625 C1087.77602438 51.10578809 1063.50009988 71.73796767 1042 92 Z M344 268 C331.64547247 297.69485845 322.77689624 326.36784413 322.75 358.75 C322.74932526 359.48132141 322.74865051 360.21264282 322.74795532 360.96612549 C322.79612516 393.94400484 329.79132457 429.14197707 353 454 C354.03577306 454.89924023 355.0843117 455.7839602 356.14428711 456.65454102 C357.08667236 457.42854248 358.02905762 458.20254395 359 459 C358.26445829 443.98046887 357.30256761 428.9798979 356.29296875 413.9765625 C356.12456357 411.46268068 355.95621467 408.9487951 355.78791809 406.43490601 C355.43499497 401.16845434 355.08102436 395.90207403 354.72631836 390.63574219 C354.37074955 385.35623429 354.01698662 380.07660956 353.66479492 374.796875 C351.28900688 339.18355975 348.75307681 303.58619628 346 268 C345.34 268 344.68 268 344 268 Z " fill="#000000" transform="translate(390,304)"/>
</svg>
