<?xml version="1.0" encoding="UTF-8"?>
<svg version="1.1" xmlns="http://www.w3.org/2000/svg" width="3048" height="1408">

<path d="M0 0 C28.71 0 57.42 0 87 0 C91.38227692 27.48882793 95.46564731 55.0040428 99.375 82.5625 C105.22251995 123.78323355 111.24767225 164.97714087 117.30029297 206.16821289 C117.56924047 207.99887676 117.56924047 207.99887676 117.84362125 209.86652374 C118.68662425 215.60450652 119.53005318 221.34242563 120.37467957 227.08016968 C122.16641327 239.260576 123.9321998 251.44435173 125.66380119 263.63345528 C128.16167172 281.21627295 130.70660528 298.79215115 133.26147461 316.36676025 C134.06039763 321.86251481 134.85905545 327.35830787 135.65742302 332.85414314 C135.93085681 334.7359896 136.20450641 336.6178047 136.47816467 338.49961853 C137.49955534 345.52931393 138.51008493 352.56047617 139.51307678 359.59281921 C140.79567241 368.56761244 142.10147578 377.5390758 143.40405273 386.51098633 C143.75837524 388.95297382 144.11221997 391.39503069 144.46557617 393.8371582 C146.24299658 406.1202994 148.04005373 418.39692349 150.00636292 430.65135193 C151.09759862 437.50084468 152.00074499 444.36963713 152.875 451.25 C154.91201263 466.89217081 157.40493846 482.44129395 160 498 C160.27330795 499.64127051 160.5465809 501.28254685 160.81982422 502.92382812 C161.54572822 507.28268931 162.27263014 511.64138319 163 516 C163.13575439 514.9891333 163.27150879 513.9782666 163.41137695 512.93676758 C167.96767115 479.02785305 167.96767115 479.02785305 169.90332031 465.64331055 C170.98647122 458.14134633 172.02708021 450.63368982 173.0625 443.125 C173.23587891 441.8683252 173.40925781 440.61165039 173.58789062 439.31689453 C174.43342248 433.17209789 175.26366576 427.02602363 176.0625 420.875 C176.64792781 416.41239681 177.3223004 411.97412548 178.05249023 407.53369141 C179.44579974 399.04307354 180.55169455 390.55212639 181.5 382 C182.31916599 374.61265076 183.20315977 367.26732708 184.4375 359.9375 C185.85224209 351.4899467 186.87458063 343.00448407 187.875 334.5 C189.21565379 323.1194471 190.71085453 311.77514518 192.375 300.4375 C194.39533616 286.6465097 196.17503903 272.83393873 197.875 259 C200.04048299 241.39872481 202.33648694 223.81902559 204.75 206.25 C204.89870544 205.16332031 205.04741089 204.07664062 205.20062256 202.95703125 C206.54962369 193.11368788 207.9017339 183.28215928 209.59277344 173.49072266 C210.29448307 169.19885113 210.76447966 164.8832135 211.25 160.5625 C212.71111252 147.98075319 214.38018628 135.42873706 216.0625 122.875 C216.19233276 121.90595734 216.32216553 120.93691467 216.45593262 119.93850708 C216.95898026 116.1861669 217.46218556 112.43385129 217.96835327 108.68193054 C218.50755535 104.68395609 219.04335071 100.685773 219.55810547 96.68457031 C220.25664853 91.29113639 220.97679902 85.93129755 222.00390625 80.58984375 C223.24503396 74.03063515 223.9483152 67.41176118 224.68902588 60.78198242 C225.92769419 49.71764088 227.24827778 38.6859157 228.99145508 27.68798828 C229.98386579 21.35939277 230.71797061 15.01647259 231.35400391 8.64257812 C231.66517915 5.59966357 232.02879844 2.91360467 233 0 C264.02 0 295.04 0 327 0 C327 2.64 327 5.28 327 8 C326.04480469 8.14695312 325.08960938 8.29390625 324.10546875 8.4453125 C315.40819668 9.95411144 308.45877395 12.03592633 301 17 C300.39542969 17.4021875 299.79085938 17.804375 299.16796875 18.21875 C291.93595819 23.6381807 289.05587163 31.52695681 287 40 C286.74512817 40.88667358 286.74512817 40.88667358 286.48510742 41.79125977 C284.55312673 49.1427779 284.65196998 56.50756568 284.6875 64.0625 C284.6882402 65.14309189 284.6882402 65.14309189 284.68899536 66.24551392 C284.7224273 82.46886045 285.90212319 98.60157998 287.24609375 114.76171875 C287.30657898 115.49266754 287.36706421 116.22361633 287.42938232 116.97671509 C287.80828786 121.3481293 288.34219458 125.664158 289 130 C289.6391333 129.35039307 290.2782666 128.70078613 290.93676758 128.03149414 C293.36107799 125.57264753 295.79016869 123.11871509 298.22241211 120.66772461 C299.26466238 119.61555272 300.30509603 118.56157752 301.34350586 117.50561523 C308.21863988 110.51739241 315.26762339 104.05360253 323 98 C323.71937744 97.42677002 324.43875488 96.85354004 325.17993164 96.26293945 C340.84167212 83.83789543 357.37409341 73.39914059 375 64 C375.63663574 63.65372559 376.27327148 63.30745117 376.92919922 62.95068359 C419.39439454 39.93982082 474.4232086 25.96566753 521.91796875 39.95703125 C533.42231335 43.55429934 544.8903284 47.29736733 555 54 C555.72574219 54.47050781 556.45148437 54.94101562 557.19921875 55.42578125 C569.70006783 64.36816312 581.00724631 76.31922271 588 90 C588.60328125 91.13050781 589.2065625 92.26101563 589.828125 93.42578125 C594.42527883 102.40645993 597.79013048 111.80938105 601.15670776 121.29989624 C611.77837762 152.30402309 611.77837762 152.30402309 636 173 C642.2561928 175.71495159 648.21951601 178.05601046 655 179 C655.31130859 177.82050781 655.31130859 177.82050781 655.62890625 176.6171875 C657.48322885 171.72515692 660.15354487 167.53932885 662.9375 163.125 C663.52015625 162.19461914 664.1028125 161.26423828 664.703125 160.30566406 C676.26483087 141.96184641 689.07043759 124.61940895 703 108 C703.83015625 106.98421875 704.6603125 105.9684375 705.515625 104.921875 C717.47980212 90.4544634 730.84685881 76.15720174 746 65 C746.54317871 64.5963623 747.08635742 64.19272461 747.64599609 63.77685547 C765.65324031 50.44385321 786.61248713 37.48612482 810 40 C822.2342824 42.66683249 830.17088911 48.09482589 837.37109375 58.21875 C843.14532421 68.07786772 842.35636937 82.2569866 840 93.1875 C834.64613824 110.87525825 824.56994151 124.68130746 812 138 C811.38898437 138.66386719 810.77796875 139.32773437 810.1484375 140.01171875 C788.29381138 162.93582657 758.68608656 177.38660244 729 187 C728.27619141 187.23831543 727.55238281 187.47663086 726.80664062 187.72216797 C714.27565504 191.76184604 700.16514876 194 687 194 C686.82984375 194.69222656 686.6596875 195.38445312 686.484375 196.09765625 C685.12156956 201.59962078 683.71996359 207.08815283 682.25 212.5625 C677.97545827 228.55124388 673.73191551 244.53288292 670.125 260.6875 C666.974567 274.72036059 663.04736521 288.51466718 659.05615234 302.3269043 C658.36986762 304.71367119 657.69259049 307.10305311 657.02587891 309.49536133 C654.50952608 318.49645615 651.65754467 327.34993998 648.625 336.1875 C648.36844635 336.93578064 648.1118927 337.68406128 647.8475647 338.45501709 C637.89915306 367.3474496 626.01939877 395.36872389 613 423 C612.68202454 423.67613342 612.36404907 424.35226685 612.03643799 425.04888916 C597.93188002 455.00981955 582.60521049 484.34668314 566 513 C565.32940211 514.15997905 564.65883043 515.31997326 563.98828125 516.47998047 C556.23053205 529.88667581 548.38970239 543.22282866 540.0234375 556.26171875 C537.76353925 559.78441251 535.54920188 563.33266232 533.3515625 566.89453125 C526.37753246 578.18852864 519.23124012 589.24773726 511.44287109 599.99658203 C509.47239252 602.73257986 507.54159918 605.49565498 505.60839844 608.25805664 C494.4783197 624.14168283 482.83936819 639.64028811 471 655 C474.8211511 653.17901075 478.01022318 650.81084718 481.3125 648.1875 C481.92206543 647.70539062 482.53163086 647.22328125 483.15966797 646.7265625 C493.6028404 638.39546244 503.55189797 629.49441232 513.35546875 620.42578125 C515.62221645 618.3465341 517.91839132 616.31813621 520.25 614.3125 C523.67524291 611.34725872 526.8419664 608.17595289 530.01953125 604.94921875 C531.85012791 603.14750724 533.73031479 601.47426102 535.6875 599.8125 C543.73884343 592.87497879 551.25926897 585.19293211 558.12890625 577.08984375 C560.64385011 574.28087722 563.31854667 571.64913188 566 569 C569.84025682 565.20134499 573.53400646 561.36358287 577.03515625 557.24609375 C579.7393087 554.1548658 582.56353965 551.18095131 585.375 548.1875 C590.05680499 543.18773321 594.47525457 538.06021316 598.7578125 532.7109375 C601.23907733 529.71094135 603.84886537 526.84868089 606.5 524 C610.73406818 519.44416307 614.72932418 514.74727905 618.62890625 509.90234375 C621.3183053 506.61037754 624.09152209 503.39978517 626.875 500.1875 C631.40589907 494.94399643 635.74551571 489.58283612 639.99560547 484.11010742 C642.9258658 480.34360967 645.92820174 476.65321118 649 473 C652.97758043 468.26567864 656.81280962 463.44215846 660.61108398 458.56469727 C664.34691173 453.78697927 668.19129987 449.10589606 672.0625 444.4375 C677.39926029 437.99262272 682.56420498 431.45425669 687.62939453 424.79296875 C690.37668437 421.19907909 693.15903507 417.6323046 695.9375 414.0625 C696.53820313 413.29043213 697.13890625 412.51836426 697.7578125 411.72290039 C701.76473755 406.57680481 705.78870154 401.44441995 709.82275391 396.31958008 C715.91601334 388.57306786 721.95390314 380.78333117 728 373 C735.43188315 363.43270245 742.86809369 353.86939194 750.36328125 344.3515625 C752.13627175 342.1000418 753.90412755 339.84463236 755.66796875 337.5859375 C761.08958738 330.65019081 766.59130337 323.78694557 772.15917969 316.96801758 C775.70089306 312.62285023 779.18130486 308.23560035 782.625 303.8125 C787.07263385 298.10827659 791.69361772 292.57386858 796.390625 287.07421875 C798.76269035 284.29266912 801.07492712 281.46651339 803.375 278.625 C808.02086104 272.91912076 812.84207118 267.37448847 817.67578125 261.828125 C819.81415274 259.37256691 821.93733 256.90555446 824.04296875 254.421875 C830.21623449 247.14290427 836.57364826 240.08331671 843.09765625 233.1171875 C845.91619355 230.10318117 848.64861926 227.02372394 851.34765625 223.90234375 C865.36016168 207.76974294 879.93730882 191.79886361 895.19433594 176.83862305 C896.85584755 175.14678368 898.38049312 173.40746099 899.90625 171.59375 C905.81171944 164.80089785 912.35001792 158.59542922 918.74804688 152.27246094 C924.46082583 146.62072968 930.12368317 141.01047568 935.3359375 134.88671875 C939.4149861 130.26188196 943.93315521 126.03216618 948.328125 121.7109375 C952.50717456 117.5745313 956.50627252 113.36715949 960.33789062 108.90722656 C962.49942001 106.42692874 964.76279917 104.05461372 967.03417969 101.67529297 C973.72283563 94.65734349 979.87351349 87.3903898 985.72949219 79.66894531 C986.95538766 78.058603 988.20002818 76.4625837 989.4453125 74.8671875 C994.33530936 68.59352593 999.04525792 62.20914584 1003.6875 55.75 C1016.13511561 38.4324422 1016.13511561 38.4324422 1019 37 C1021.8125 36.625 1021.8125 36.625 1025 37 C1029.97401129 40.95659989 1031.59236434 44.41830749 1032.5625 50.5625 C1032.18593618 61.14592528 1022.88143262 69.65420724 1015.984375 76.84375 C1012.50087275 80.48217293 1009.34512085 84.35245679 1006.1953125 88.28125 C1003.92987607 91.08684387 1001.59236538 93.82095338 999.25 96.5625 C987.63494944 110.56518847 978.10171229 125.36004455 969.43994141 141.35058594 C968.18195886 143.66520557 966.90036712 145.96374032 965.60546875 148.2578125 C943.43129462 188.02349811 930.93113445 233.81091552 918.03515625 277.25 C899.56293608 338.25434276 870.38924662 396.27256339 840.40917969 452.36132812 C838.76997043 455.43072758 837.13925725 458.5045918 835.5078125 461.578125 C827.56652652 476.51617298 819.45189153 491.34324551 811 506 C810.34241699 507.14114258 809.68483398 508.28228516 809.00732422 509.45800781 C799.71778106 525.55156988 790.17654808 541.44683265 780 557 C779.4215332 557.88623047 778.84306641 558.77246094 778.24707031 559.68554688 C761.47322315 585.31354281 743.04639347 609.78733309 724.171875 633.8984375 C723.53813965 634.70877441 722.9044043 635.51911133 722.25146484 636.35400391 C721.03047598 637.91304433 719.80697251 639.47011975 718.58056641 641.02490234 C715.80322161 644.56974562 713.19248633 648.05041469 711 652 C730.52645681 640.32800559 748.14529199 625.60514475 765.41723633 610.88208008 C768.75846706 608.03534524 772.14454043 605.25389885 775.5625 602.5 C780.63751471 598.37192681 785.44015416 593.99654409 790.234375 589.55078125 C792.44055947 587.51598117 794.66632261 585.52353762 796.9375 583.5625 C801.49619315 579.60412858 805.92001298 575.50127211 810.34155273 571.39135742 C812.55531634 569.33546884 814.77648367 567.28858258 817.00952148 565.25366211 C829.16111318 554.11692391 840.74973476 542.40300989 852.39111328 530.73925781 C855.41436243 527.71026669 858.44214391 524.68585184 861.47123718 521.66270638 C863.83409334 519.30348089 866.19454185 516.94185803 868.55429077 514.57952499 C869.66977883 513.46337695 870.78599039 512.34795143 871.90298462 511.2333107 C877.81729601 505.32875061 883.56726122 499.35660806 889 493 C890.2784322 491.60735373 891.56508389 490.22210208 892.8671875 488.8515625 C893.52058105 488.16143066 894.17397461 487.47129883 894.84716797 486.76025391 C895.51635254 486.05562012 896.18553711 485.35098633 896.875 484.625 C901.95703709 479.24983558 907.00001978 473.85112285 911.921875 468.328125 C914.30393192 465.65950484 916.71375334 463.01726431 919.125 460.375 C924.09895476 454.90517551 928.9797461 449.3676406 933.78125 443.74609375 C934.8124583 442.53902687 935.84370948 441.33199663 936.875 440.125 C937.65460083 439.21210205 937.65460083 439.21210205 938.44995117 438.28076172 C941.47905595 434.74357043 944.55156303 431.25598946 947.6875 427.8125 C951.44149176 423.67572196 954.97146456 419.39278769 958.484375 415.05078125 C961.42925551 411.47942771 964.45735149 407.98802106 967.5 404.5 C971.94696802 399.39563748 976.31450837 394.24387289 980.578125 388.984375 C983.5958748 385.26572847 986.64117254 381.57024436 989.6875 377.875 C990.89324236 376.4114692 992.09897136 374.9479274 993.3046875 373.484375 C995.15392801 371.24019865 997.00323365 368.99607599 998.85253906 366.75195312 C1018.98762398 342.32054276 1018.98762398 342.32054276 1038.85546875 317.671875 C1041.09870916 314.8770181 1043.36064636 312.09806375 1045.625 309.3203125 C1050.75661582 303.02458013 1055.83541175 296.69483422 1060.83300781 290.29223633 C1064.35321765 285.79397831 1067.94825423 281.36041023 1071.5625 276.9375 C1075.4322354 272.20092582 1079.2346818 267.4307954 1082.9375 262.5625 C1087.40073897 256.70812161 1092.05909038 251.03396625 1096.75756836 245.36743164 C1100.40472402 240.96088448 1103.98750761 236.51447638 1107.5 232 C1113.32879993 224.5146623 1119.37552502 217.2137803 1125.42529297 209.90673828 C1127.52491169 207.36440925 1129.60646512 204.80755092 1131.6875 202.25 C1135.37588292 197.73361275 1139.13463295 193.28071667 1142.91259766 188.83935547 C1145.84320979 185.38801897 1148.71736471 181.89754846 1151.5625 178.375 C1155.43812933 173.61192782 1159.51234289 169.06635751 1163.66796875 164.546875 C1165.62405252 162.41058251 1167.54187697 160.25219343 1169.4375 158.0625 C1173.24161043 153.68955063 1177.16082097 149.42438542 1181.08984375 145.1640625 C1182.92879412 143.16999061 1184.75162529 141.16486078 1186.56640625 139.1484375 C1193.4132451 131.59399231 1200.55069105 124.34154786 1207.75 117.125 C1208.49352722 116.37759048 1208.49352722 116.37759048 1209.2520752 115.61508179 C1214.98837614 109.85517027 1220.81858315 104.28223654 1227 99 C1228.60768373 97.54554483 1230.21239715 96.08779105 1231.8125 94.625 C1258.6622598 70.49266302 1293.05972217 43.34283844 1331 45 C1340.35018229 46.09450294 1348.75229013 50.64594955 1354.59765625 57.94921875 C1359.35926761 64.91257799 1360.85405299 72.68554295 1360 81 C1358.15646631 90.24258105 1354.17749156 96.88625523 1347 103 C1342.03460934 106.24057075 1336.97558737 108.63414771 1331 109 C1329.78376953 109.0928125 1329.78376953 109.0928125 1328.54296875 109.1875 C1317.64617134 109.67518883 1310.52534255 105.89616825 1302.2265625 99.09765625 C1300 97 1300 97 1297.96484375 94.38671875 C1296.01345828 92.01634793 1294.69107673 91.00210811 1291.9375 89.75 C1290.93009766 89.27820313 1290.93009766 89.27820313 1289.90234375 88.796875 C1282.82102718 85.83057401 1274.30674797 85.81183585 1267.0625 88.375 C1244.42319672 98.83516274 1225.28863441 120.65712465 1207.9375 137.9375 C1207.15221924 138.71810791 1206.36693848 139.49871582 1205.55786133 140.30297852 C1201.44477946 144.42750885 1197.50425263 148.63652588 1193.7043457 153.05053711 C1190.7777865 156.39799095 1187.6897135 159.59206807 1184.625 162.8125 C1179.54264462 168.189015 1174.71605846 173.6387559 1170.10546875 179.42578125 C1167.82799154 182.21030348 1165.43687992 184.85413803 1163 187.5 C1158.96045182 191.89378548 1155.15320381 196.41838824 1151.40625 201.0625 C1148.70220726 204.36353919 1145.9187381 207.58751673 1143.125 210.8125 C1138.67269199 215.96850771 1134.3949581 221.22996829 1130.21533203 226.60864258 C1126.70424962 231.12316 1123.11778942 235.57063948 1119.5 240 C1115.45002082 244.96219019 1111.44194521 249.95154386 1107.5 255 C1103.55804835 260.0484644 1099.5496258 265.03751462 1095.5 270 C1089.12337912 277.81741077 1082.87907588 285.73258389 1076.68212891 293.69287109 C1070.63824902 301.45526255 1064.47393871 309.1012333 1058.1965332 316.67626953 C1054.51695523 321.12643711 1050.91499231 325.62576064 1047.375 330.1875 C1043.23599874 335.51600896 1038.91123213 340.64919483 1034.48657227 345.74194336 C1030.96498793 349.81611217 1027.60823996 353.99170023 1024.3125 358.25 C1020.45886773 363.22549786 1016.43176045 367.94840263 1012.171875 372.5859375 C1009.11269365 375.98625059 1006.25361227 379.53655673 1003.375 383.08984375 C1000.82510991 386.21429789 998.23376456 389.29972804 995.625 392.375 C995.16512695 392.91729248 994.70525391 393.45958496 994.23144531 394.01831055 C992.35008017 396.23516617 990.46699428 398.45055708 988.58398438 400.66601562 C987.18019194 402.31833563 985.77728202 403.97139798 984.375 405.625 C983.68905762 406.43360474 983.68905762 406.43360474 982.98925781 407.25854492 C980.07606986 410.70192474 977.21433224 414.18269926 974.375 417.6875 C970.80067479 422.08226641 967.06142322 426.28703483 963.24609375 430.47265625 C960.93812402 433.06962393 958.74444137 435.73404013 956.5625 438.4375 C952.70579235 443.20640285 948.63540354 447.72514344 944.48046875 452.234375 C941.99535768 455.00517601 939.64555667 457.85051362 937.3125 460.75 C934.27425576 464.51443267 931.13673701 467.98207422 927.6640625 471.34375 C925.3086822 473.68807218 923.17055227 476.2002977 921 478.71484375 C917.21936284 483.03451707 913.30574096 487.23489737 909.41748047 491.45751953 C908.0781119 492.91499983 906.74396875 494.3772771 905.41015625 495.83984375 C891.53165844 511.05401653 877.29444778 525.87026441 862.71533203 540.41503906 C859.9718009 543.15314332 857.23374568 545.8966438 854.49609375 548.640625 C852.72688353 550.40917537 850.95736363 552.17741602 849.1875 553.9453125 C848.3821582 554.75267853 847.57681641 555.56004456 846.74707031 556.39187622 C842.51436477 560.60722279 838.20690101 564.66709743 833.66809082 568.55209351 C831.50212622 570.43215553 829.49646587 572.44210441 827.5 574.5 C824.21484357 577.82426543 820.84219312 580.9463983 817.296875 583.98828125 C814.3117473 586.60280636 811.4082244 589.30054146 808.5 592 C803.73380266 596.4151957 798.93092232 600.76849928 794 605 C793.50951172 605.42216797 793.01902344 605.84433594 792.51367188 606.27929688 C788.94853806 609.34775326 785.37636938 612.40785089 781.79931641 615.46240234 C780.6391774 616.45379386 779.47992905 617.44622904 778.32177734 618.43994141 C771.21207902 624.53977587 763.97943716 630.43898712 756.5859375 636.19140625 C754.17465148 638.07057815 751.78624796 639.9740572 749.4140625 641.90234375 C735.19985532 653.45138708 720.41342872 664.17164747 704.85546875 673.84570312 C703.17705902 674.88985065 701.5097071 675.9517217 699.84375 677.015625 C694.0255555 680.51307899 688.82949474 682.6336741 682 681 C678.5965112 678.68562761 677.32997687 677.2899096 676.3125 673.3125 C678.08594941 664.76769831 684.81716232 657.39100439 690.0625 650.625 C739.32774409 585.88160031 767.50679991 508.03043916 795.03565979 432.36065674 C807.67549605 397.62447719 820.58217505 363.04282385 835 329 C835.4479895 327.93996765 835.4479895 327.93996765 835.9050293 326.85852051 C848.34878833 297.44243005 861.77458924 268.54095756 878 241 C879.1268181 239.06540463 880.25311181 237.13050374 881.37890625 235.1953125 C898.57472398 205.74759866 918.44733565 178.1813615 939 151 C934.12056424 154.6643984 929.91815414 158.93432932 925.625 163.25 C924.89539062 163.97574219 924.16578125 164.70148438 923.4140625 165.44921875 C919.3373187 169.53324245 915.45879979 173.71810426 911.69287109 178.08886719 C908.93572013 181.20149738 905.9701046 184.09242392 903 187 C898.72253996 191.22816505 894.59028693 195.48420636 890.703125 200.078125 C888.56600337 202.48973932 886.29205721 204.73539257 884 207 C880.53805934 210.42566284 877.26662999 213.9157024 874.1015625 217.61328125 C871.17879148 220.93263644 868.15029106 224.14919222 865.125 227.375 C854.73871291 238.45990401 844.70284106 249.82385259 834.83154297 261.36743164 C831.56481868 265.18467631 828.27867143 268.98415677 824.97900391 272.77294922 C819.19440528 279.41854289 813.53568215 286.14455257 808 293 C806.46944836 294.88455679 804.93747541 296.76795337 803.40551758 298.65136719 C801.73653549 300.7040601 800.06934632 302.75819934 798.40234375 304.8125 C796.1495948 307.5875036 793.89152695 310.35804042 791.62890625 313.125 C785.79021893 320.2722996 780.04376314 327.47168279 774.4453125 334.80859375 C771.91141209 338.1263113 769.33417037 341.40886593 766.75 344.6875 C755.72191919 358.68962304 744.80088028 372.77613924 733.98828125 386.9453125 C726.63734864 396.57671763 719.22911063 406.16120217 711.77929688 415.71630859 C709.98113348 418.02421479 708.18546443 420.3340393 706.390625 422.64453125 C700.16129434 430.66322782 693.91884694 438.67102211 687.63671875 446.6484375 C685.86372825 448.8999582 684.09587245 451.15536764 682.33203125 453.4140625 C676.91041262 460.34980919 671.40869663 467.21305443 665.84082031 474.03198242 C662.29910694 478.37714977 658.81869514 482.76439965 655.375 487.1875 C650.92850427 492.89026373 646.30858865 498.42321348 641.61328125 503.921875 C639.22117731 506.7270732 636.88544149 509.57463157 634.5625 512.4375 C629.67934266 518.43086007 624.65159315 524.29410088 619.60009766 530.14550781 C617.97434866 532.02972957 616.35231942 533.91710988 614.73046875 535.8046875 C609.16036966 542.27396209 603.5306174 548.67197184 597.73535156 554.94067383 C595.34239948 557.52953243 592.98693506 560.14033856 590.6875 562.8125 C582.39736497 572.35510147 573.64834393 581.51865053 564.59765625 590.33984375 C562.53466559 592.45247027 560.61656921 594.58813036 558.69921875 596.828125 C554.97653789 601.1218217 550.92673632 604.9661431 546.75 608.8125 C541.72617696 613.48396485 536.75813195 618.18118877 531.9375 623.0625 C528.41382699 626.62332017 524.82494625 630.0137654 521.015625 633.265625 C518.69885379 635.25912581 516.44580016 637.31554388 514.1875 639.375 C509.92660596 643.21562376 505.56065262 646.88914964 501.09765625 650.4921875 C498.81996742 652.33616761 496.55961334 654.19436652 494.30859375 656.0703125 C485.22035681 663.6095077 475.88104917 670.53525734 466 677 C465.12384033 677.57838623 465.12384033 677.57838623 464.22998047 678.16845703 C443.48016067 691.77753013 443.48016067 691.77753013 434 690 C431.5625 688.4375 431.5625 688.4375 430 686 C429.12873298 681.55653822 429.85377187 678.74383576 432.1875 675 C437.70990478 667.34157073 444.23655194 660.4002558 450.47558594 653.32714844 C510.55783284 584.89663144 538.80853915 486.95596816 565.04724121 401.70645142 C571.43718248 380.9733402 578.58992349 360.48518388 585.61369324 339.96047974 C587.82413398 333.49043229 589.99214337 327.00822641 592.12672424 320.51278687 C595.83168149 309.25931556 599.84802751 298.186108 604.25 287.1875 C604.57181244 286.37861328 604.89362488 285.56972656 605.22518921 284.73632812 C617.6434912 253.54925292 631.76725007 222.9166142 647 193 C645.30810547 193.04833984 645.30810547 193.04833984 643.58203125 193.09765625 C618.35099511 193.05888188 592.17916391 180.66436764 573 165 C572.19949219 164.35289062 571.39898438 163.70578125 570.57421875 163.0390625 C564.59133654 157.97582885 559.74594343 152.21854646 555 146 C554.5963623 145.47132324 554.19272461 144.94264648 553.77685547 144.39794922 C544.92546508 132.6964042 538.05059627 120.23631432 531.60424805 107.08007812 C521.08547876 85.63944498 509.9229888 65.49192982 486.29296875 57.03515625 C469.12281652 51.63765881 450.33388938 53.06067079 433 57 C432.33693848 57.14453613 431.67387695 57.28907227 430.99072266 57.43798828 C386.21332047 67.29753331 346.40659106 93.38136749 313 124 C311.93395942 124.96134315 310.86753392 125.92225958 309.80078125 126.8828125 C304.64246193 131.54950535 299.55822443 136.28259273 294.75 141.3125 C293.69039062 142.42044922 293.69039062 142.42044922 292.609375 143.55078125 C289.06270493 148.94826216 289.98200733 155.50194258 290.5234375 161.66015625 C290.58870636 162.4781218 290.65397522 163.29608734 290.72122192 164.13883972 C290.86066537 165.88021371 291.00339548 167.62132718 291.14916992 169.36218262 C291.52978776 173.91334325 291.88592968 178.46640877 292.2421875 183.01953125 C292.31205872 183.90691986 292.38192993 184.79430847 292.45391846 185.70858765 C292.99215859 192.64428247 293.33554002 199.57236893 293.57995605 206.5241394 C293.88213129 213.96883568 294.4979704 221.38055477 295.14096451 228.80198097 C296.83008405 248.35181047 298.30495133 267.91633329 299.73486328 287.48657227 C299.99613065 291.06064743 300.25989033 294.63452507 300.52587891 298.20825195 C301.95865859 317.46290629 303.37228221 336.69832916 304 356 C349.65690691 354.30334126 384.90412145 333.35101734 417 302 C417.4964502 301.51869629 417.99290039 301.03739258 418.50439453 300.54150391 C423.94597363 295.25491247 429.15165374 289.83543472 434 284 C434.41975098 283.49936035 434.83950195 282.9987207 435.27197266 282.48291016 C458.54806745 254.59207657 475.22620714 222.6232215 487.96826172 188.73974609 C488.94704511 186.14061992 489.94242362 183.54844646 490.94140625 180.95703125 C494.26117339 172.25221623 497.13174396 163.53653111 499.49121094 154.52026367 C500.91318658 149.08681342 500.91318658 149.08681342 502 148 C505.5 147.875 505.5 147.875 509 148 C510 149 510 149 510.1953125 152.25 C510.11258525 158.25973476 508.95654755 164.10362588 507.875 170 C507.6490918 171.23532471 507.42318359 172.47064941 507.19042969 173.7434082 C494.43975651 241.74845207 460.34472545 309.82049485 403 351 C401.94941406 351.77214844 400.89882812 352.54429687 399.81640625 353.33984375 C383.71305263 364.87039683 366.51908801 373.93248992 347 378 C345.95477173 378.25487183 345.95477173 378.25487183 344.88842773 378.51489258 C337.78948527 380.13818553 330.94774476 380.2659222 323.6875 380.1875 C322.53443359 380.18685547 321.38136719 380.18621094 320.19335938 380.18554688 C315.29413419 380.1599857 310.79928213 380.01324442 306 379 C306.147006 380.67557983 306.147006 380.67557983 306.29698181 382.38500977 C307.22586622 392.97547074 308.15263557 403.56611503 309.07739925 414.15693665 C309.55275435 419.60015906 310.02882277 425.04331702 310.5065918 430.48632812 C310.96869154 435.75114072 311.42882558 441.01612193 311.8876667 446.28121948 C312.06198454 448.27763845 312.23697932 450.27399844 312.41270256 452.27029419 C313.20301432 461.25305145 313.98091295 470.22691774 314.49047852 479.23046875 C314.86119924 485.55587695 315.49342756 491.81662712 316.22300816 498.10769272 C317.2054788 506.62505699 317.93197561 515.16058461 318.65625 523.703125 C318.80532975 525.44075309 318.95462684 527.17836254 319.10412598 528.91595459 C319.49325471 533.4445172 319.87981791 537.97329477 320.26568604 542.50213623 C320.65368595 547.052317 321.04360247 551.60233329 321.43359375 556.15234375 C321.50958424 557.03899027 321.58557472 557.92563679 321.66386795 558.83915138 C322.44005909 567.89298501 323.21789522 576.94667517 324 586 C324.10509888 587.21729797 324.21019775 588.43459595 324.31848145 589.68878174 C326.4588201 630.72870422 326.4588201 630.72870422 346.1875 665.3125 C356.28149386 673.14326654 368.43605663 676.98677876 381 678 C381 680.97 381 683.94 381 687 C323.91 687 266.82 687 208 687 C208 684.03 208 681.06 208 678 C208.91177002 677.92483154 209.82354004 677.84966309 210.76293945 677.7722168 C214.19862708 677.48400332 217.63326529 677.18651989 221.06762695 676.88305664 C222.54420339 676.75442829 224.02109214 676.62932785 225.49829102 676.50805664 C241.39543558 675.19811899 258.1481528 672.66738265 270 661 C273.19404739 656.80597461 274.83362635 653.01590767 276.1875 647.9375 C276.67283203 646.15666016 276.67283203 646.15666016 277.16796875 644.33984375 C278.54256714 638.82208964 279.15853035 633.76186323 279.16796875 628.0703125 C279.1721582 627.29672897 279.17634766 626.52314545 279.18066406 625.72612 C279.19049735 623.19236225 279.19043573 620.65877387 279.1875 618.125 C279.18722809 617.24943451 279.18695618 616.37386902 279.18667603 615.47177124 C279.1652598 600.40383094 278.49768177 585.48464606 277.33398438 570.45849609 C276.9312859 565.17919152 276.5838872 559.89632892 276.234375 554.61328125 C276.1013473 552.61157034 275.96829058 550.60986136 275.83520508 548.6081543 C275.73630478 547.11993668 275.73630478 547.11993668 275.63540649 545.60165405 C275.57009735 544.61935822 275.50478821 543.63706238 275.4375 542.625 C275.34159073 541.1811644 275.34159073 541.1811644 275.2437439 539.7081604 C275.05912083 536.94331517 274.87172675 534.17867086 274.68359375 531.4140625 C274.60241302 530.18777885 274.60241302 530.18777885 274.51959229 528.9367218 C274.25960266 525.14628122 273.94408294 521.37754436 273.5 517.60400391 C272.89884926 512.38746511 272.60582951 507.16360706 272.31640625 501.921875 C272.19213489 499.76822469 272.06778324 497.61457901 271.94335938 495.4609375 C271.75339428 492.12475151 271.56465777 488.78850352 271.37768555 485.45214844 C270.76454601 474.56668839 270.13297407 463.6999141 269.03125 452.8515625 C267.6775403 439.49230741 266.9020388 426.09092618 266.06671143 412.69152832 C265.8507903 409.2382182 265.6313571 405.7851315 265.41210938 402.33203125 C265.16419829 398.42598579 264.91682023 394.5199099 264.67185974 390.61367798 C264.52487289 388.27080397 264.37376096 385.92818462 264.21824646 383.58586121 C264.06284875 381.03262573 263.93517115 378.48754592 263.83558655 375.93232727 C263.80393182 375.25657591 263.77227709 374.58082455 263.73966312 373.88459587 C263.65156296 371.99537962 263.57736948 370.10552974 263.50402832 368.21568298 C262.66046165 362.83375726 259.63638692 360.25946117 255.5625 356.9375 C254.0880445 355.59882382 252.62061128 354.252374 251.16015625 352.8984375 C250.08725342 351.91762207 250.08725342 351.91762207 248.99267578 350.91699219 C231.66286625 334.24538419 222.17130421 306.30570494 221.53125 282.7578125 C221.48280951 279.87952408 221.48229836 277.00358036 221.5 274.125 C221.50143005 273.36808868 221.50286011 272.61117737 221.5043335 271.83132935 C221.56948196 257.79735561 223.24324255 244.56024801 227 231 C227.33692871 229.77506836 227.33692871 229.77506836 227.68066406 228.52539062 C231.49418163 215.14754881 236.84223072 201.28543162 244.1328125 189.41015625 C249.57646535 180.49534824 250.8340351 172.1738184 248.51464844 161.83691406 C247.80575798 157.92927311 247.63225056 154.04009915 247.421875 150.078125 C247.31447926 148.19586672 247.20679819 146.31362471 247.09887695 144.43139648 C247.04236969 143.42696503 246.98586243 142.42253357 246.92764282 141.38766479 C245.66288057 119.04845665 244.05123131 96.74376438 242.3125 74.4375 C242.25521225 73.70185318 242.1979245 72.96620636 242.13890076 72.20826721 C241.43230467 63.13834118 240.71956549 54.06890706 240 45 C239.94694199 45.55545502 239.89388397 46.11091003 239.83921814 46.68319702 C239.59202996 49.25520149 239.34095318 51.82681302 239.08984375 54.3984375 C238.96482483 55.70832642 238.96482483 55.70832642 238.83728027 57.04467773 C238.25829946 62.93802122 237.49141412 68.77696489 236.5625 74.625 C236.42078369 75.53258057 236.27906738 76.44016113 236.13305664 77.37524414 C235.96084595 78.47533813 235.96084595 78.47533813 235.78515625 79.59765625 C234.86004005 85.73414574 234.18312069 91.89517725 233.5 98.0625 C232.58129382 106.33265113 231.49962875 114.53281507 230.125 122.73852539 C228.85931814 130.47681859 228.00077917 138.25625552 227.17773438 146.05273438 C226.50353345 152.25459438 225.63612166 158.39646392 224.62890625 164.55078125 C222.542873 177.38227234 221.02198772 190.28645657 219.4375 203.1875 C219.131152 205.66344768 218.82451287 208.13935936 218.51757812 210.61523438 C217.57132615 218.25411665 216.62741092 225.89328851 215.68878174 233.53311157 C214.54905394 242.80637409 213.30879321 252.06153866 212 261.3125 C210.86242943 269.4275506 209.7798204 277.53000229 209 285.6875 C208.20058627 293.97801857 206.91741824 302.16487008 205.60375977 310.38769531 C204.1659204 319.54903237 203.01851688 328.72897766 201.9375 337.9375 C200.83077677 347.36337951 199.64705579 356.7496057 198.07177734 366.11083984 C197.00919176 372.57118764 196.27867434 379.05565399 195.5625 385.5625 C194.44970222 395.67289267 193.0131513 405.6971172 191.41040039 415.74047852 C190.3153804 422.68998787 189.45967031 429.61684228 188.80049133 436.61941528 C188.17461747 442.9504259 187.2292753 449.20734938 186.2265625 455.48828125 C183.82863481 470.79918576 181.74333833 486.14866153 179.66986084 501.50604248 C179.17492825 505.16768307 178.6771267 508.82893363 178.1796875 512.49023438 C176.5932041 524.17537758 175.01503992 535.86157611 173.46058655 547.55102539 C172.9903246 551.07245153 172.51368576 554.59296989 172.03515625 558.11328125 C170.2428802 571.35373197 168.55799695 584.59553499 167.07446289 597.87451172 C166.25960834 605.05386157 165.25007678 612.18083223 164.12475586 619.31713867 C162.86466496 627.49746822 162.00514118 635.71495612 161.125 643.94335938 C160.29285101 651.62773516 159.28206925 659.26262923 158.12719727 666.90429688 C156.82142875 675.76541793 155.93941877 684.67052515 155.08984375 693.58569336 C154.97640625 694.72143799 154.86296875 695.85718262 154.74609375 697.02734375 C154.64997803 698.03531006 154.5538623 699.04327637 154.45483398 700.08178711 C153.96631227 703.21614033 153.08065242 706.02260194 152 709 C150.35 709 148.7 709 147 709 C145.33006497 701.20993075 144.11184397 693.38714315 143 685.5 C142.835 684.36046875 142.67 683.2209375 142.5 682.046875 C141.57768754 675.56186553 140.77684403 669.07895058 140.08007812 662.56665039 C139.20387575 654.54666882 138.16299434 646.55955253 137.02723694 638.57263374 C136.47475507 634.6857727 135.93159448 630.7976012 135.38671875 626.90966797 C135.27289101 626.09915891 135.15906326 625.28864985 135.04178619 624.4535799 C133.76170185 615.3281375 132.52003282 606.19753192 131.28125 597.06640625 C131.16740967 596.22789501 131.05356934 595.38938377 130.9362793 594.5254631 C130.23985397 589.39580624 129.54424339 584.26603924 128.84893799 579.13623047 C128.38418536 575.70826322 127.91893484 572.28036363 127.45366478 568.85246658 C125.11289641 551.60670127 122.77654915 534.36033766 120.4453125 517.11328125 C120.29029455 515.96645528 120.29029455 515.96645528 120.13214493 514.79646111 C119.04608172 506.76033555 117.96203424 498.72394611 116.88378906 490.68676758 C110.72563867 444.78650307 104.35909247 398.91609003 97.91160512 353.05569088 C97.15490913 347.67308631 96.3992533 342.29033638 95.64398193 336.90753174 C94.71299025 330.27305633 93.78013017 323.63884646 92.84500617 317.00495219 C92.36073971 313.56948742 91.87709381 310.13393876 91.39523506 306.69813538 C90.86449129 302.91710631 90.33092584 299.13648569 89.79663086 295.35595703 C89.64341558 294.26023691 89.49020031 293.16451679 89.33234215 292.03559303 C88.48966478 286.09713767 87.53088983 280.19726307 86.41997051 274.3028574 C85.89734142 271.43708411 85.52838136 268.57107154 85.2109375 265.67578125 C85.0780835 264.51006592 84.94522949 263.34435059 84.80834961 262.14331055 C84.59384155 260.24705933 84.59384155 260.24705933 84.375 258.3125 C82.50804347 242.23183583 80.23880243 226.21095962 77.9375 210.1875 C77.76587341 208.99097809 77.59424683 207.79445618 77.41741943 206.56167603 C75.72401067 194.77134527 74.00780766 182.98484412 72.22929382 171.20704651 C70.97719553 162.89424512 69.76238618 154.57602264 68.546875 146.2578125 C68.32152873 144.71617552 68.0961767 143.17453938 67.87081909 141.63290405 C67.52277053 139.25182938 67.17473043 136.87075348 66.82671738 134.48967361 C62.31805651 103.64415409 57.75064454 72.80935152 53 42 C52.9799761 42.70241097 52.9599522 43.40482195 52.93932152 44.1285181 C52.40922073 62.07605018 51.40898829 79.9373218 50.0390625 97.83984375 C49.84537126 100.42725261 49.65221863 103.01470184 49.45956421 105.60218811 C49.00693824 111.67138624 48.54919665 117.7401853 48.08916318 123.80882603 C47.22634516 135.19298923 46.37338675 146.57789518 45.52147675 157.96287918 C45.32490137 160.58873316 45.12802748 163.2145648 44.9308548 165.84037399 C43.60418593 183.51986303 42.36530208 201.20254951 41.21928787 218.89459991 C40.38474903 231.73852231 39.41375057 244.56325786 38.31205368 257.38689423 C36.74849106 275.60076481 35.46424252 293.8328267 34.19174576 312.06901932 C33.99659874 314.86116491 33.80038879 317.65323394 33.60385132 320.44528198 C32.03411346 342.74869973 30.51754389 365.05359863 29.13909912 387.36975098 C28.38911701 399.46967675 27.49790834 411.54586192 26.44543457 423.62301636 C24.9709238 440.61017822 23.77063477 457.61728221 22.5625 474.625 C22.50909203 475.37646931 22.45568405 476.12793861 22.40065765 476.90217972 C20.65329704 501.49973264 18.94209764 526.09982705 17.25610352 550.70166016 C17.17882523 551.82860291 17.10154694 552.95554565 17.02192688 554.11663818 C16.87436732 556.27353499 16.7274434 558.4304754 16.58122253 560.58746338 C16.29843701 564.74496349 16.01499993 568.90162062 15.67871094 573.05517578 C15.00133232 581.56125456 14.78138194 590.02866904 14.75976562 598.55810547 C14.75003826 600.86592389 14.71886275 603.17285648 14.6875 605.48046875 C14.59413013 618.42520164 15.61637851 631.57096987 21.25 643.4375 C21.55301025 644.0979834 21.85602051 644.7584668 22.16821289 645.43896484 C28.32602984 658.38453816 37.64038773 666.00778184 50.8972168 671.29516602 C60.72607814 674.58971178 71.07656632 675.8568804 81.3125 677.1875 C82.65046614 677.36597127 83.98835734 677.5450052 85.32617188 677.72460938 C88.55009342 678.15524149 91.77464328 678.58027717 95 679 C95 681.64 95 684.28 95 687 C44.18 686.67 -6.64 686.34 -59 686 C-59 683.36 -59 680.72 -59 678 C-57.58460938 677.76216797 -57.58460938 677.76216797 -56.140625 677.51953125 C-43.53218219 675.22823793 -32.6430106 671.86114488 -23 663 C-22.37351562 662.42765625 -21.74703125 661.8553125 -21.1015625 661.265625 C-15.46510046 655.5060961 -12.68892813 648.48707866 -10 641 C-9.77570312 640.38044434 -9.55140625 639.76088867 -9.3203125 639.12255859 C2.49069486 605.4698722 1.87706753 567.09795018 4.5625 531.8125 C4.6159193 531.11082703 4.66933861 530.40915405 4.72437668 529.68621826 C6.08871169 511.7454003 7.36663627 493.80142359 8.54663086 475.84741211 C9.1605769 466.52058695 9.82730682 457.19773736 10.5 447.875 C10.62955655 446.07072519 10.75903083 444.26644447 10.88842773 442.4621582 C11.20195791 438.09206042 11.51620559 433.72201467 11.83074951 429.35198975 C12.24246574 423.6305743 12.65275416 417.90905689 13.0625 412.1875 C13.14040771 411.10355957 13.21831543 410.01961914 13.29858398 408.90283203 C13.72260159 402.97904351 14.13337289 397.05450536 14.53125 391.12890625 C14.62011475 389.81317627 14.70897949 388.49744629 14.80053711 387.1418457 C14.97004273 384.62358927 15.13764989 382.10520403 15.30297852 379.58666992 C15.64881537 374.4536655 16.06212368 369.38049238 16.75219727 364.28076172 C17.46902173 357.68315176 17.68606629 351.02082425 18.04956055 344.39477539 C18.53053475 335.70489659 19.15355691 327.04270999 19.94140625 318.375 C21.25655531 303.79098444 22.11005003 289.17714713 23 274.5625 C23.33009172 269.14693271 23.66227821 263.7315036 24 258.31640625 C24.04158234 257.64966511 24.08316467 256.98292397 24.12600708 256.29597855 C24.63951124 248.11398519 25.22317242 239.94416032 25.9375 231.77734375 C26.90658763 220.69697659 27.65635027 209.60515036 28.3984375 198.5078125 C29.45995575 182.66378853 30.58765299 166.82623 31.7890625 150.9921875 C31.86431908 149.99925941 31.93957565 149.00633133 32.01711273 147.98331451 C32.62900669 139.91617117 33.24495648 131.84933864 33.86126709 123.78253174 C34.32806454 117.67095405 34.79334573 111.55926447 35.25666428 105.44742203 C35.46844141 102.6615195 35.68234894 99.8757865 35.89639282 97.09005737 C41.34378334 56.69793016 41.34378334 56.69793016 29 20 C21.42905536 12.15805957 10.32206994 10.06441399 0 8 C0 5.36 0 2.72 0 0 Z " fill="#FFF5E6" transform="translate(950,350)"/>


<path d="M0 0 C7.59 0 15.18 0 23 0 C23.99773437 2.14113281 24.99546875 4.28226563 26.0234375 6.48828125 C28.59956607 12.01239866 31.1889301 17.53011282 33.7890625 23.04296875 C34.74692433 25.07665705 35.70455302 27.11045496 36.66210938 29.14428711 C37.30675851 30.51220512 37.9522738 31.87971527 38.59863281 33.24682617 C42.61685357 41.74869476 46.48126147 50.27521679 50 59 C54.45373409 49.47293881 58.47487429 39.77547619 62.5 30.0625 C63.15738353 28.47974769 63.8149347 26.897065 64.47265625 25.31445312 C65.73655517 22.27266179 66.99956142 19.23050266 68.26171875 16.18798828 C70.5016702 10.78942761 72.75045897 5.39457244 75 0 C82.26 0 89.52 0 97 0 C97 0.99 97 1.98 97 3 C96.030625 3.474375 95.06125 3.94875 94.0625 4.4375 C91.19522563 5.70193947 91.19522563 5.70193947 90 7 C89.45567201 18.02289621 90.23936582 29.14542576 90.79956055 40.15429688 C90.9383471 42.8917081 91.0701385 45.62939529 91.20117188 48.3671875 C91.2886512 50.1380412 91.37652768 51.90887533 91.46484375 53.6796875 C91.50343002 54.48300507 91.5420163 55.28632263 91.58177185 56.11398315 C91.7865503 60.06832034 92.05204991 64.01449427 92.41625977 67.95751953 C92.48249039 68.68552765 92.54872101 69.41353577 92.61695862 70.16360474 C92.87945978 72.21919227 92.87945978 72.21919227 94.875 74 C97.10554506 75.10063599 97.10554506 75.10063599 100 76 C100 77.32 100 78.64 100 80 C90.43 80 80.86 80 71 80 C71 78.68 71 77.36 71 76 C72.98 75.34 74.96 74.68 77 74 C77.24335375 44.98177803 77.24335375 44.98177803 76 16 C75.77038574 16.57403564 75.54077148 17.14807129 75.30419922 17.73950195 C74.97436035 18.56409912 74.64452148 19.38869629 74.3046875 20.23828125 C73.92505859 21.18743408 73.54542969 22.13658691 73.15429688 23.11450195 C72.28863511 25.27849117 71.42274316 27.44238833 70.55664062 29.60620117 C68.11425634 35.70919782 65.67496629 41.81339735 63.24221802 47.92024231 C61.975918 51.09843925 60.70826501 54.27609574 59.44049072 57.45370483 C58.81466634 59.02330196 58.18946046 60.59314585 57.56488037 62.16323853 C56.68025826 64.38680625 55.79347618 66.60950154 54.90625 68.83203125 C54.50993881 69.83055115 54.50993881 69.83055115 54.10562134 70.84924316 C52.85754375 73.96981696 51.56827841 77.02579182 50 80 C48.35 80 46.7 80 45 80 C39.56801406 69.43307321 34.65725784 58.68587975 29.875 47.8125 C28.83560302 45.45748739 27.79524575 43.10290183 26.75445557 40.74850464 C26.08712478 39.23786651 25.42088001 37.72674809 24.75579834 36.21511841 C22.51634191 31.13248309 20.20470945 26.08799678 17.81689453 21.07299805 C17 19 17 19 17 16 C16.34 16 15.68 16 15 16 C15.00785522 16.97271851 15.00785522 16.97271851 15.01586914 17.96508789 C15.09404957 29.14291023 15.12194032 40.22894395 14.22265625 51.375 C13.80080872 58.2429738 13.92423501 65.1222226 14 72 C16.97 73.32 19.94 74.64 23 76 C23 77.32 23 78.64 23 80 C14.75 80 6.5 80 -2 80 C-2 78.68 -2 77.36 -2 76 C-1.030625 75.525625 -0.06125 75.05125 0.9375 74.5625 C3.80477437 73.29806053 3.80477437 73.29806053 5 72 C5.18071357 70.59424978 5.29818567 69.18028036 5.38891602 67.76586914 C5.44890274 66.86304703 5.50888947 65.96022491 5.57069397 65.03004456 C5.63115402 64.04173141 5.69161407 63.05341827 5.75390625 62.03515625 C5.81907944 61.01385117 5.88425262 59.99254608 5.95140076 58.94029236 C6.08899763 56.76218053 6.22417882 54.583915 6.35717773 52.40551758 C6.55804401 49.13505163 6.76963875 45.86541247 6.98242188 42.59570312 C7.7545308 30.37932507 8.20239209 18.24032157 8 6 C5.36 5.01 2.72 4.02 0 3 C0 2.01 0 1.02 0 0 Z " fill="#FFF5E6" transform="translate(487,572)"/>
<path d="M0 0 C10.23 0 20.46 0 31 0 C29.75453595 3.73639216 28.36595047 4.18756513 25 6 C25.5541482 10.80982435 26.54411121 14.95480986 28.29296875 19.46484375 C28.75590332 20.67043945 29.21883789 21.87603516 29.69580078 23.11816406 C30.19286751 24.391341 30.69010337 25.66445191 31.1875 26.9375 C31.69066703 28.24027987 32.19310592 29.5433412 32.69482422 30.84667969 C33.67941843 33.40323941 34.66710421 35.9585711 35.65673828 38.51318359 C37.82001485 44.1285809 39.89793583 49.77473896 41.9765625 55.421875 C42.76006561 57.8921728 42.76006561 57.8921728 44 59 C45.91836059 54.0488864 47.80499371 49.08720658 49.6640625 44.11352539 C50.29982498 42.42575046 50.94391731 40.74108761 51.59667969 39.05981445 C52.53745075 36.63236619 53.44698186 34.19503589 54.3515625 31.75390625 C54.6462442 31.01290176 54.9409259 30.27189728 55.24453735 29.50843811 C57.64627764 22.86759232 56.33786867 18.03896846 54.17578125 11.51171875 C51.72594648 6.33491859 49.19402064 4.3972403 44 2 C44 1.34 44 0.68 44 0 C53.9 0 63.8 0 74 0 C72.86695008 3.39914975 71.87481525 4.05254451 69 6 C69.56498662 10.90199823 70.60687662 15.1691795 72.328125 19.7890625 C72.55900818 20.41420746 72.78989136 21.03935242 73.027771 21.68344116 C73.76202039 23.66644529 74.50587753 25.6456827 75.25 27.625 C75.73369518 28.92815462 76.21677248 30.23153875 76.69921875 31.53515625 C78.58733897 36.62235181 80.48258379 41.70533943 82.47460938 46.75292969 C82.93158203 47.91469727 83.38855469 49.07646484 83.859375 50.2734375 C84.27155273 51.30645996 84.68373047 52.33948242 85.10839844 53.40380859 C86 56 86 56 86 59 C86.66 59 87.32 59 88 59 C88.09982178 58.0404541 88.19964355 57.0809082 88.30249023 56.09228516 C88.98338132 51.35948778 90.56048798 47.01318898 92.16015625 42.5234375 C92.79495792 40.70053338 93.42972244 38.87761633 94.06445312 37.0546875 C95.06527619 34.20560398 96.06869211 31.35745095 97.07348633 28.50976562 C98.04628824 25.74568609 99.00979897 22.97849381 99.97265625 20.2109375 C100.27575211 19.36187836 100.57884796 18.51281921 100.89112854 17.63803101 C102.27512029 13.65244264 103.42146905 10.28647619 103 6 C100.69 5.01 98.38 4.02 96 3 C96 2.01 96 1.02 96 0 C104.58 0 113.16 0 122 0 C122 0.99 122 1.98 122 3 C121.20335938 3.29390625 121.20335938 3.29390625 120.390625 3.59375 C119.33101562 4.04234375 119.33101562 4.04234375 118.25 4.5 C117.20585937 4.91765625 117.20585937 4.91765625 116.140625 5.34375 C110.09590873 10.02068376 108.00094436 20.24881826 105.59375 27.20703125 C105.18717163 28.36820969 104.78059326 29.52938812 104.36169434 30.72575378 C103.06945505 34.41960906 101.78451797 38.11595346 100.5 41.8125 C99.21386741 45.49775525 97.92624525 49.18248713 96.63830566 52.86711121 C95.83994536 55.15284569 95.04290533 57.43904192 94.24743652 59.7257843 C91.88696197 66.50457388 89.47195562 73.26105048 87 80 C84.69 80 82.38 80 80 80 C75.61401104 69.90683535 71.89144653 59.60750301 68.1875 49.25 C67.58426235 47.57021265 66.98074862 45.89052442 66.37695312 44.2109375 C64.91478901 40.14175868 63.45634812 36.07126378 62 32 C58.28064103 40.70205328 54.86144457 49.49365086 51.55078125 58.35742188 C50.74028474 60.52599424 49.92502745 62.69273735 49.109375 64.859375 C48.58826001 66.24989448 48.06741645 67.64051571 47.546875 69.03125 C47.30523621 69.67292114 47.06359741 70.31459229 46.81463623 70.97570801 C45.70509317 73.95530444 44.67740861 76.89051978 44 80 C41.69 80 39.38 80 37 80 C30.06584544 64.66593462 24.15292786 48.99345493 18.31811523 33.21679688 C16.5623781 28.47139826 14.78715031 23.73364685 13 19 C12.7589151 18.35397827 12.5178302 17.70795654 12.2694397 17.0423584 C11.63301214 15.34950722 10.97550546 13.66462236 10.31640625 11.98046875 C9.96779541 11.0783667 9.61918457 10.17626465 9.26000977 9.24682617 C7.4074217 5.94332531 4.93198214 4.46848686 1.57421875 2.8671875 C1.05472656 2.58101562 0.53523438 2.29484375 0 2 C0 1.34 0 0.68 0 0 Z " fill="#FFF5E6" transform="translate(2239,572)"/>
<path d="M0 0 C7.2040588 -0.10205147 14.40792876 -0.17173735 21.61254883 -0.21972656 C24.0595598 -0.2397483 26.50652349 -0.26697398 28.95336914 -0.30175781 C32.48595907 -0.35069163 36.01791229 -0.37306416 39.55078125 -0.390625 C40.63144363 -0.41127014 41.71210602 -0.43191528 42.82551575 -0.45318604 C54.87238614 -0.45668486 63.87483367 3.43201492 72.6484375 11.51953125 C79.51873717 18.68626517 82.45564912 27.47329629 82.4375 37.25 C82.13394372 48.8976172 78.84765162 60.16982992 70.75 68.9375 C56.8835102 81.35389936 38.01786991 80.41658104 20.625 80.1875 C18.6171976 80.17241715 16.60938417 80.15873516 14.6015625 80.14648438 C9.73409728 80.11378429 4.86717391 80.06220336 0 80 C0 78.68 0 77.36 0 76 C3.96 75.01 3.96 75.01 8 74 C8.06947395 65.4465123 8.12279776 56.89314225 8.15543652 48.33944225 C8.17110056 44.36771373 8.19235199 40.39617807 8.22631836 36.42456055 C8.25888596 32.59256911 8.27684745 28.76076332 8.28463173 24.92864418 C8.29017996 23.46577341 8.30101425 22.00291293 8.31719017 20.54012108 C8.33893079 18.49291304 8.34196847 16.4464746 8.34057617 14.39916992 C8.34723801 13.23334885 8.35389984 12.06752777 8.36076355 10.86637878 C8.2394291 8.01101454 8.2394291 8.01101454 6.64668274 6.17427063 C4.55756243 4.68449208 2.41272352 3.84771367 0 3 C0 2.01 0 1.02 0 0 Z M22 7 C21.67882776 9.68215865 21.67882776 9.68215865 21.70947266 12.85498047 C21.69671295 14.08320526 21.68395325 15.31143005 21.67080688 16.57687378 C21.66774932 17.92364343 21.66552151 19.27041517 21.6640625 20.6171875 C21.65763724 21.99480327 21.65090908 23.37241765 21.64389038 24.75003052 C21.63190489 27.64018924 21.62821078 30.53022833 21.62939453 33.42041016 C21.62959764 37.12182707 21.60231117 40.82247542 21.56785011 44.52371025 C21.54559667 47.37020378 21.54155651 50.21651203 21.54261398 53.06308365 C21.54025506 54.42743704 21.53141496 55.79179531 21.51594925 57.15606308 C21.49632771 59.06601818 21.50463999 60.9761983 21.51416016 62.88623047 C21.51131012 63.97273895 21.50846008 65.05924744 21.50552368 66.17868042 C22.11671955 69.66596342 23.26803165 70.82420445 26 73 C33.87784231 76.01876334 43.60531541 74.23871701 51.234375 71.3828125 C58.7102741 67.64486295 62.56374046 62.02677574 65.30859375 54.296875 C68.66128915 43.15910722 68.42542311 31.04882166 63.484375 20.48046875 C60.82797061 16.04147721 58.00867452 12.67537406 53.6875 9.8125 C52.96949219 9.32394531 52.25148438 8.83539062 51.51171875 8.33203125 C45.36768313 5.07368576 39.47385659 4.68362976 32.6875 4.75 C31.47223633 4.73839844 31.47223633 4.73839844 30.23242188 4.7265625 C25.63759601 4.54444259 25.63759601 4.54444259 22 7 Z " fill="#FFF5E6" transform="translate(731,572)"/>
<path d="M0 0 C19.14 0 38.28 0 58 0 C58 5.94 58 11.88 58 18 C56.68 17.67 55.36 17.34 54 17 C52.93347808 14.69631264 51.93578995 12.35981813 51 10 C48.98060136 7.4757517 48.15499404 7.05166468 45 6 C43.29983156 5.91821886 41.59663703 5.89250499 39.89453125 5.90234375 C39.00870361 5.90484131 38.12287598 5.90733887 37.21020508 5.90991211 C35.52834106 5.92356812 35.52834106 5.92356812 33.8125 5.9375 C30.244375 5.958125 26.67625 5.97875 23 6 C22.67 15.57 22.34 25.14 22 35 C25.073125 34.9175 28.14625 34.835 31.3125 34.75 C32.27712158 34.73420898 33.24174316 34.71841797 34.2355957 34.70214844 C39.08725998 34.62700637 39.08725998 34.62700637 43.04296875 32.140625 C44.09152939 29.88959958 44.09152939 29.88959958 45 27 C46.32 27 47.64 27 49 27 C49 34.92 49 42.84 49 51 C47.68 51 46.36 51 45 51 C44.7525 49.88625 44.505 48.7725 44.25 47.625 C43.39973023 44.08632537 43.39973023 44.08632537 41.46875 42.8125 C37.77301265 41.59618138 34.11859751 41.52897403 30.25 41.375 C29.45722656 41.33632813 28.66445313 41.29765625 27.84765625 41.2578125 C25.89880584 41.163892 23.94943549 41.08087178 22 41 C22.06877071 45.236428 22.15668121 49.4718913 22.26245117 53.70751953 C22.29573178 55.14881342 22.32375404 56.59023863 22.34643555 58.03173828 C22.3799262 60.10245797 22.432233 62.17197093 22.48828125 64.2421875 C22.51446533 65.4885498 22.54064941 66.73491211 22.56762695 68.01904297 C22.71031006 69.00275879 22.85299316 69.98647461 23 71 C27.33639822 73.89093215 31.21241024 73.32981191 36.3125 73.3125 C37.25029297 73.32861328 38.18808594 73.34472656 39.15429688 73.36132812 C44.50954953 73.36510209 48.41322809 73.0795862 53 70 C55.70595392 66.54239221 57.54131406 63.13294351 59 59 C60.65 59 62.3 59 64 59 C63.910361 60.62586609 63.80223503 62.25071198 63.6875 63.875 C63.60048828 65.23238281 63.60048828 65.23238281 63.51171875 66.6171875 C62.82191377 71.1772723 61.32523787 75.58254044 60 80 C40.2 80 20.4 80 0 80 C0 78.68 0 77.36 0 76 C3.465 75.01 3.465 75.01 7 74 C7 51.56 7 29.12 7 6 C4.69 5.01 2.38 4.02 0 3 C0 2.01 0 1.02 0 0 Z " fill="#FFF5E6" transform="translate(627,572)"/>
<path d="M0 0 C18.81 0 37.62 0 57 0 C58.125 9 58.125 9 58.0625 13.5 C58.05347656 14.3559375 58.04445313 15.211875 58.03515625 16.09375 C58.02355469 16.7228125 58.01195313 17.351875 58 18 C55.6875 18 55.6875 18 53 17 C52.10659664 15.02743614 51.56017466 13.11507611 51.06640625 11.0078125 C49.34284554 7.76272017 47.44270273 7.20513367 44 6 C40.36200855 5.65741374 36.77471058 5.71681153 33.125 5.8125 C29.78375 5.874375 26.4425 5.93625 23 6 C22.67 15.57 22.34 25.14 22 35 C25.0525 34.979375 28.105 34.95875 31.25 34.9375 C32.20551758 34.949021 33.16103516 34.96054199 34.14550781 34.97241211 C36.59858438 34.89792703 38.65544729 34.74555041 41 34 C43.07766698 31.75820004 43.83185183 29.89083859 45 27 C45.99 27 46.98 27 48 27 C48 34.59 48 42.18 48 50 C47.01 50 46.02 50 45 50 C44.7525 49.236875 44.505 48.47375 44.25 47.6875 C42.78434077 44.53633265 42.02530756 43.68498143 39 42 C36.09034268 41.49839877 33.19776432 41.39804872 30.25 41.3125 C29.45722656 41.27833984 28.66445312 41.24417969 27.84765625 41.20898438 C25.89892496 41.12680896 23.94948638 41.06171955 22 41 C22.06877071 45.236428 22.15668121 49.4718913 22.26245117 53.70751953 C22.29573178 55.14881342 22.32375404 56.59023863 22.34643555 58.03173828 C22.3799262 60.10245797 22.432233 62.17197093 22.48828125 64.2421875 C22.51446533 65.4885498 22.54064941 66.73491211 22.56762695 68.01904297 C22.71031006 69.00275879 22.85299316 69.98647461 23 71 C27.33402657 73.88935104 31.21347102 73.36807667 36.3125 73.375 C37.71918945 73.41173828 37.71918945 73.41173828 39.15429688 73.44921875 C44.95224718 73.4737344 48.4609816 72.97343094 53 69 C55.26749726 65.99709822 56.81166449 63.56500652 58 60 C59.65 60 61.3 60 63 60 C62.41065754 67.18997804 60.95852527 72.81874067 59 80 C39.53 80 20.06 80 0 80 C0 78.68 0 77.36 0 76 C3.465 75.01 3.465 75.01 7 74 C7 51.56 7 29.12 7 6 C4.69 5.01 2.38 4.02 0 3 C0 2.01 0 1.02 0 0 Z " fill="#FFF5E6" transform="translate(2397,572)"/>

<path d="M0 0 C10.23 0 20.46 0 31 0 C31 0.99 31 1.98 31 3 C27.04 4.98 27.04 4.98 23 7 C22.95371375 15.31000792 22.9181498 23.61996221 22.89637566 31.93006706 C22.88592657 35.78854797 22.871747 39.64694085 22.84912109 43.50537109 C22.8274326 47.22712192 22.81543986 50.94878794 22.81024551 54.67059708 C22.80654255 56.09241191 22.79931181 57.51422197 22.78853989 58.93600082 C22.77407881 60.92327114 22.77318354 62.91062631 22.77294922 64.89794922 C22.76628738 66.59671707 22.76628738 66.59671707 22.75949097 68.32980347 C22.72632938 71.15354424 22.72632938 71.15354424 25 73 C28.3949893 73.47890437 31.82507034 73.3703904 35.25 73.375 C36.19230469 73.39949219 37.13460937 73.42398438 38.10546875 73.44921875 C43.88264227 73.47352663 47.56016961 73.08021796 52 69 C53.73656639 66.48125623 53.73656639 66.48125623 54.875 63.75 C55.28492187 62.85796875 55.69484375 61.9659375 56.1171875 61.046875 C56.40851562 60.37140625 56.69984375 59.6959375 57 59 C58.65 59 60.3 59 62 59 C61.88385202 60.83391542 61.75656767 62.66712628 61.625 64.5 C61.55539063 65.5209375 61.48578125 66.541875 61.4140625 67.59375 C60.94509698 71.451655 59.9425672 75.22973121 59 79 C39.53 79 20.06 79 0 79 C0 78.01 0 77.02 0 76 C0.969375 75.690625 1.93875 75.38125 2.9375 75.0625 C5.84065792 74.30476658 5.84065792 74.30476658 7 73 C7.09417773 70.91380978 7.11742878 68.82439523 7.11352539 66.73608398 C7.11367142 66.08244873 7.11381744 65.42881348 7.1139679 64.75537109 C7.11326883 62.58557872 7.10547678 60.41587121 7.09765625 58.24609375 C7.09579205 56.74536689 7.09436816 55.24463943 7.09336853 53.74391174 C7.08954352 49.78681774 7.0797134 45.82976022 7.06866455 41.87268066 C7.05845006 37.83765151 7.05387083 33.80261647 7.04882812 29.76757812 C7.03809111 21.84503531 7.0210149 13.92252219 7 6 C4.69 5.01 2.38 4.02 0 3 C0 2.01 0 1.02 0 0 Z " fill="#FFF5E6" transform="translate(2599,572)"/>
<path d="M0 0 C10.23 0 20.46 0 31 0 C31 0.99 31 1.98 31 3 C29.865625 3.474375 28.73125 3.94875 27.5625 4.4375 C24.24259834 5.63622083 24.24259834 5.63622083 23 7 C22.89024344 8.94735612 22.85088738 10.89871142 22.83886719 12.84912109 C22.82925964 14.10066986 22.8196521 15.35221863 22.80975342 16.64169312 C22.8049058 18.0189394 22.80062688 19.39618779 22.796875 20.7734375 C22.79112573 22.17729699 22.78536797 23.58115645 22.77960205 24.98501587 C22.76908281 27.93239713 22.76324634 30.87975104 22.75976562 33.82714844 C22.75428169 37.60588283 22.73026019 41.38425671 22.70179367 45.16287804 C22.68317815 48.06420957 22.67796227 50.96545414 22.67642975 53.86684036 C22.67339973 55.25992426 22.66535941 56.6530065 22.65224457 58.04603195 C22.63521022 59.99464561 22.63890535 61.94340727 22.64355469 63.89208984 C22.63990906 65.00160004 22.63626343 66.11111023 22.63250732 67.25424194 C22.77353782 70.01526221 22.77353782 70.01526221 24.39892578 71.85649109 C27.57143801 74.12234233 31.49152275 73.46886817 35.25 73.4375 C36.08402344 73.45748047 36.91804688 73.47746094 37.77734375 73.49804688 C43.68260294 73.49341166 47.23978348 72.56260169 52 69 C53.84503117 66.50089193 53.84503117 66.50089193 54.9375 63.75 C55.33839844 62.85796875 55.73929688 61.9659375 56.15234375 61.046875 C56.43207031 60.37140625 56.71179687 59.6959375 57 59 C58.65 59 60.3 59 62 59 C62.4816672 65.90389648 60.85415215 72.37116589 59 79 C58 80 58 80 55.67784119 80.12025452 C54.64969803 80.11803391 53.62155487 80.11581329 52.56225586 80.11352539 C50.82056374 80.11341209 50.82056374 80.11341209 49.04368591 80.11329651 C47.14840904 80.10555458 47.14840904 80.10555458 45.21484375 80.09765625 C43.92888809 80.0962413 42.64293243 80.09482635 41.31800842 80.09336853 C37.89356557 80.08954418 34.46916491 80.07971462 31.04473877 80.06866455 C27.55261811 80.05844864 24.06049066 80.05387053 20.56835938 80.04882812 C13.71222222 80.03809227 6.85611313 80.02101684 0 80 C0.3125 78.0703125 0.3125 78.0703125 1 76 C4 74.875 4 74.875 7 74 C8.38540928 71.22918143 8.15025628 68.95435649 8.17700195 65.85375977 C8.19625481 63.91648766 8.19625481 63.91648766 8.21589661 61.94007874 C8.22406244 60.52385846 8.23150647 59.10763386 8.23828125 57.69140625 C8.24235678 56.9798683 8.2464323 56.26833035 8.25063133 55.53523064 C8.27148674 51.77113001 8.28579224 48.00706582 8.29516602 44.24291992 C8.30624601 40.35089384 8.34066475 36.45943708 8.38033772 32.56761265 C8.40644772 29.5779258 8.41485265 26.58837598 8.41844749 23.59858513 C8.42332596 22.16361573 8.43497578 20.72865294 8.45348549 19.29379463 C8.47775892 17.28788068 8.4745038 15.28169046 8.4699707 13.27563477 C8.47583694 12.13361099 8.48170319 10.99158722 8.48774719 9.81495667 C8.26501299 6.89902848 8.26501299 6.89902848 6.11125183 5.15074158 C4.05355769 4.02919171 2.29976302 3.41067197 0 3 C0 2.01 0 1.02 0 0 Z " fill="#FFF5E6" transform="translate(2500,572)"/>


<path d="M0 0 C2.875 -0.125 2.875 -0.125 6 0 C6.66 0.66 7.32 1.32 8 2 C7.01 3.485 7.01 3.485 6 5 C4.02 4.34 2.04 3.68 0 3 C0 2.01 0 1.02 0 0 Z " fill="#FFF5E6" transform="translate(627,572)"/>
<path d="M0 0 C4.55384615 -0.36923077 4.55384615 -0.36923077 6.8125 1.5 C7.204375 1.995 7.59625 2.49 8 3 C5.36 3 2.72 3 0 3 C0 2.01 0 1.02 0 0 Z " fill="#FFF5E6" transform="translate(2501,648)"/>

<path d="M0 0 C2.64 0 5.28 0 8 0 C4.93882432 2.62386487 4.26826873 3 0 3 C0 2.01 0 1.02 0 0 Z " fill="#FFF5E6" transform="translate(731,572)"/>
</svg>
